<?xml version="1.0" encoding="iso-8859-1"?>
<!-- Uploaded to: SVG Repo, www.svgrepo.com, Generator: SVG Repo Mixer Tools -->
<svg fill="#000000" height="800px" width="800px" version="1.1" id="Layer_1" xmlns="http://www.w3.org/2000/svg" xmlns:xlink="http://www.w3.org/1999/xlink" 
	 viewBox="0 0 512 512" xml:space="preserve">
<g transform="translate(0 -1)">
	<g>
		<g>
			<path d="M341.333,171.667C329.536,171.667,320,181.224,320,193s9.536,21.333,21.333,21.333h64
				c11.797,0,21.333-9.557,21.333-21.333s-9.536-21.333-21.333-21.333H341.333z"/>
			<path d="M320,150.333h64c11.797,0,21.333-9.557,21.333-21.333s-9.536-21.333-21.333-21.333h-64
				c-11.797,0-21.333,9.557-21.333,21.333S308.203,150.333,320,150.333z" fill = "#1bdb4bee"/>
			<path d="M490.667,235.667H209.408c2.389-6.699,3.925-13.824,3.925-21.333v-42.667c0-9.173-5.845-16.832-13.973-19.84
				l29.056-29.077c8.341-8.341,8.341-21.824,0-30.165c-8.341-8.341-21.824-8.341-30.165,0l-27.584,27.584V65
				c0-11.776-9.536-21.333-21.333-21.333C137.536,43.667,128,53.224,128,65v55.168l-27.584-27.584
				c-8.341-8.341-21.824-8.341-30.165,0c-8.341,8.341-8.341,21.824,0,30.165l29.077,29.077c-8.149,3.008-13.995,10.667-13.995,19.84
				v42.667c0,7.509,1.536,14.635,3.925,21.333H21.333C9.536,235.667,0,245.224,0,257v85.333c0,11.776,9.536,21.333,21.333,21.333
				h21.333V449c0,11.776,9.536,21.333,21.333,21.333h64c10.176,0,18.923-7.168,20.907-17.152l17.92-89.515h178.347l17.92,89.515
				c1.984,9.984,10.731,17.152,20.907,17.152h64c11.797,0,21.333-9.557,21.333-21.333v-85.333h21.333
				c11.797,0,21.333-9.557,21.333-21.333V257C512,245.224,502.464,235.667,490.667,235.667z M110.528,427.667H85.333v-64h37.973
				L110.528,427.667z M170.667,214.333c0,11.755-9.557,21.333-21.333,21.333S128,226.088,128,214.333V193h42.667V214.333z
				 M426.667,427.667h-25.195l-12.779-64h37.973V427.667z" fill = "#b87c0eff"/>
		</g>
	</g>
</g>
</svg>