<?xml version="1.0" encoding="iso-8859-1"?>
<!-- Uploaded to: SVG Repo, www.svgrepo.com, Generator: SVG Repo Mixer Tools -->
<svg fill="#000000" height="800px" width="800px" version="1.1" id="Layer_1" xmlns="http://www.w3.org/2000/svg" xmlns:xlink="http://www.w3.org/1999/xlink" 
	 viewBox="0 0 512 512" xml:space="preserve">
<g>
	<g>
		<path d="M322.548,64h-136c-2.212,0-2.548,1.408-2.548,3.612v371.752c0,2.208,1.064,4.316,3.272,4.316s3.272-3.68,3.272-3.68h128
			c0,0,2.516,3.68,4.728,3.68c2.212,0,4.728-2.108,4.728-4.316V67.612C328,65.408,324.756,64,322.548,64z"/>
	</g>
</g>
<g>
	<g>
		<path d="M498.624,60H10.46C3.836,60,0,65.148,0,71.776v263.068v9.064V382.7v8.752v47.864C0,445.94,3.836,452,10.46,452h488.164
			c6.632,0,13.376-6.06,13.376-12.688v-47.864V387.3v-43.392v-4.468V71.776C512,65.148,505.256,60,498.624,60z M488,428H24v-24h464
			V428z M488,380H24v-24h464V380z M488,332H24V84h464V332z"/>
	</g>
</g>
<g>
	<g>
		<path d="M54.532,103.364c-4.484-4.48-12.484-4.48-16.96,0c-2.244,2.244-3.524,5.32-3.524,8.48s1.28,6.236,3.524,8.476
			c2.244,2.24,5.32,3.524,8.476,3.524c3.164,0,6.244-1.28,8.484-3.524c2.24-2.244,3.516-5.316,3.516-8.476
			S56.776,105.604,54.532,103.364z"/>
	</g>
</g>
<g>
	<g>
		<path d="M467.36,103.364c-4.484-4.48-12.484-4.48-16.96,0c-2.244,2.244-3.524,5.32-3.524,8.48s1.28,6.236,3.524,8.476
			c2.244,2.24,5.32,3.524,8.476,3.524c3.164,0,6.244-1.28,8.484-3.524c2.24-2.244,3.516-5.316,3.516-8.476
			S469.604,105.604,467.36,103.364z"/>
	</g>
</g>
<g>
	<g>
		<path d="M54.532,295.452c-4.484-4.476-12.484-4.476-16.96,0c-2.244,2.24-3.524,5.32-3.524,8.476c0,3.164,1.28,6.244,3.524,8.48
			c2.244,2.244,5.32,3.52,8.476,3.52c3.164,0,6.244-1.276,8.484-3.52c2.244-2.24,3.516-5.316,3.516-8.48
			C58.048,300.772,56.776,297.688,54.532,295.452z"/>
	</g>
</g>
<g>
	<g>
		<path d="M467.36,299.452c-4.484-4.476-12.484-4.476-16.96,0c-2.244,2.24-3.524,5.32-3.524,8.476c0,3.164,1.28,6.244,3.524,8.48
			c2.244,2.244,5.32,3.52,8.476,3.52c3.164,0,6.244-1.276,8.484-3.52c2.244-2.24,3.516-5.316,3.516-8.48
			C470.876,304.772,469.604,301.688,467.36,299.452z"/>
	</g>
</g>
<g>
	<g>
		<path d="M459.436,141.16c-18.368,0-33.592-14.868-33.592-33.24c0-2.212-2.072-3.92-4.28-3.92H83.36c-2.212,0-4,1.712-4,3.92
			c0,18.372-13.968,33.276-32.336,33.276C44.812,141.2,44,142.948,44,145.16v121.364c0,2.212,0.812,4,3.024,4
			c18.368,0,32.824,15.032,32.824,33.4c0,2.208,1.3,4.08,3.512,4.08h338.204c2.212,0,4-1.872,4-4.08
			c0-18.368,15.508-33.36,33.876-33.36c2.208,0,4.56-1.828,4.56-4.04V145.16C464,142.948,461.648,141.16,459.436,141.16z
			 M114.772,231.372c-15.156,0-27.444-12.288-27.444-27.448c0-15.156,12.288-27.44,27.444-27.44s27.444,12.284,27.444,27.44
			C142.22,219.084,129.928,231.372,114.772,231.372z M306.336,246.936C298.796,238.548,284,234.832,272,233.14v-13.764
			c8-6.96,11.556-21.428,11.556-35.868c0-25.032-12.74-31.664-28.752-31.664s-29.432,6.632-29.432,31.664
			c0,14.436,6.632,28.908,10.632,35.868v13.764c-12,1.744-26.608,5.624-33.936,14.548c-6.452-12.592-9.956-27.644-9.956-43.844
			c0-44.108,27.964-79.864,62.3-79.864c34.328,0,61.988,35.752,61.988,79.864C316.396,219.728,312.564,234.496,306.336,246.936z
			 M395.436,231.372c-15.156,0-27.444-12.288-27.444-27.448c0-15.156,12.288-27.44,27.444-27.44s27.444,12.284,27.444,27.44
			C422.884,219.084,410.592,231.372,395.436,231.372z"/>
	</g>
</g>
</svg>