<svg xmlns="http://www.w3.org/2000/svg" version="1.1" xmlns:xlink="http://www.w3.org/1999/xlink" xmlns:svgjs="http://svgjs.dev/svgjs" width="100%" height="100%" viewBox="0 0 1000 600"><rect width="1000" height="600" x="0" y="0" fill="#eeeeee"/><g><rect width="333.3333333333333" height="333.3333333333333" rx="13.333333333333334" ry="13.333333333333334" y="136.51517368684603" fill="BLACK" transform="matrix(1.093680899531238,0,0,1.093680899531238,0,-31.58418485693852)" x="114.29296112060545"/><path d="M160.60609225990808 371.262644759747L160.60609225990808 371.262644759747Q154.9495267486494 371.262644759747 151.23740563188588 368.0808266596639Q147.50003199051855 364.8990085595809 147.50003199051855 359.0909279006993L147.50003199051855 359.0909279006993Q147.50003199051855 357.62628147367695 148.33336530244506 354.6464835704246Q149.14144608976773 351.6414331425684 150.5050824183747 348.9899180591659Q151.86871874698173 346.36365550036714 153.5101328462309 346.36365550036714L153.5101328462309 346.36365550036714Q154.59599140419576 346.36365550036714 154.59599140419576 347.8283019273895L154.59599140419576 347.8283019273895Q154.59599140419576 349.44446350203486 152.77780963271974 351.9192109132106Q150.95962786124372 354.36870579978233 150.95962786124372 358.1818370149613L150.95962786124372 358.1818370149613Q150.95962786124372 361.6414328856864 152.95457730494658 363.45961465716243Q154.9495267486494 365.27779642863845 158.23235494714774 365.27779642863845L158.23235494714774 365.27779642863845Q166.59094059101662 365.27779642863845 176.69195043255 361.6414328856864Q186.7677077494795 358.0050693427344 196.59093982037072 351.994968487022Q206.41417189126193 346.01012015591357 214.14144442003493 338.6363829715941Q221.868716948808 331.2626457872748 225.32831281953315 323.6363833569171L225.32831281953315 323.6363833569171Q226.59093904972482 321.08587837193 226.59093904972482 318.9141612560003L226.59093904972482 318.9141612560003Q226.59093904972482 314.8990098439907 223.13134317899966 313.9141613844413Q219.6969998328783 312.9040604002879 216.76770697883362 312.9040604002879L216.76770697883362 312.9040604002879Q205.68184867775076 312.9040604002879 193.51013181870306 314.19193915508345Q181.3131624350515 315.45456538527503 169.1414455760038 315.45456538527503L169.1414455760038 315.45456538527503Q163.51013258934893 315.45456538527503 158.33336504556308 313.8131512860259Q153.1313449771734 312.1717371867767 149.77275920486355 308.3586059715979Q146.41417343255372 304.5454747564191 146.41417343255372 298.0050708840262L146.41417343255372 298.0050708840262Q146.41417343255372 290.00002058461104 151.51518340252807 281.9949702851958Q156.59094084789857 273.9899199857806 164.3182133766716 266.91921309670727Q172.04548590544462 259.8232536830301 180.50508164772884 254.44446594241356Q188.96467739001304 249.09093072640087 195.5050812624059 246.36365806918684L195.5050812624059 246.36365806918684Q201.8687174625719 243.81315308419968 208.1313435643226 242.17173898495048Q214.41922219067712 240.55557741030518 221.1363937352968 240.55557741030518L221.1363937352968 240.55557741030518L223.68689872028398 240.55557741030518Q230.40407026490365 240.55557741030518 236.96972666190035 242.550526854008Q243.5101305342932 244.54547629771085 247.87881729075642 249.1919408248162Q252.22225152261575 253.8131528273177 252.22225152261575 261.64143545450605L252.22225152261575 261.64143545450605Q252.22225152261575 263.0808293569246 251.76770607974674 266.46466765383826Q251.31316063687774 269.8232534261481 250.2273020789129 272.62628365717364Q249.14144352094806 275.45456641280293 247.14649407724525 275.45456641280293L247.14649407724525 275.45456641280293Q246.23740319150724 275.45456641280293 246.23740319150724 274.36870785483814L246.23740319150724 274.36870785483814Q246.23740319150724 271.9949705420778 247.14649407724525 269.6464857539213Q248.05558496298323 267.27274844116096 248.05558496298323 264.89901112840056L248.05558496298323 264.89901112840056Q248.05558496298323 258.35860725600776 244.24245374780438 254.1919406963752Q240.4040700080217 250.00002161213885 234.77275702136686 248.00507216843602Q229.14144403471198 246.01012272473318 223.3333633758303 246.01012272473318L223.3333633758303 246.01012272473318Q216.0606362899263 246.01012272473318 206.96972743254625 248.73739538194718Q197.87881857516624 251.4646680391612 188.7879097177862 256.3636578123049Q179.69700086040615 261.2626475854486 171.96972833163315 267.90406155625675Q164.24245580286012 274.5454755270649 159.49498117733944 282.17173795742264Q154.77275907642257 289.8232529123842 154.77275907642257 298.0050708840262L154.77275907642257 298.0050708840262Q154.77275907642257 301.9949697714319 157.22225396299442 304.82325252706124Q159.6970013741701 307.62628275808675 163.4091224909336 309.0909291851091Q167.14649613230094 310.5555756121314 170.60609200302613 310.5555756121314L170.60609200302613 310.5555756121314Q182.77780886207384 310.5555756121314 194.69700047508323 308.63638374224007Q206.59093956348875 306.71719187234874 218.4091210780828 306.71719187234874L218.4091210780828 306.71719187234874Q221.868716948808 306.71719187234874 225.32831281953315 307.5505251842752Q228.78790869025835 308.3586059715979 231.06063590460334 310.63133318594294Q233.33336311894834 312.9040604002879 233.33336311894834 317.09597948452426L233.33336311894834 317.09597948452426Q233.33336311894834 324.7222419148819 228.05558547674715 332.44951444365495Q222.77780783454597 340.176786972428 214.41922219067712 347.1717362876899Q206.06063654680827 354.19193812755555 196.13639437750172 359.6464834419836Q186.23740473279904 365.10102875641155 176.86871810477683 368.18183675807927Q167.50003147675463 371.262644759747 160.60609225990808 371.262644759747ZM266.0606350055165 293.4596164553362L266.0606350055165 293.4596164553362Q258.9646755918393 293.4596164553362 252.95457473612694 289.64648524015735Q246.9697264050184 285.8081015003747 243.33336286206637 279.545475398624Q239.69699931911438 273.2828492968733 239.69699931911438 266.36365755542295L239.69699931911438 266.36365755542295Q239.69699931911438 257.2727486980429 244.14144364938906 250.1767892843657Q248.58588797966374 243.08082987068852 255.7828574917563 238.1818400975448Q262.9545744792449 233.28285032440112 271.51518031994453 230.73234533941397Q280.0505336360402 228.18184035442678 288.0555839354554 228.18184035442678L288.0555839354554 228.18184035442678Q297.50002813728906 228.18184035442678 306.2374016502155 230.73234533941397Q314.94952263853804 233.28285032440112 323.13134061018 237.09598153957998Q331.3131585818221 240.90911275475884 338.7879058645567 244.82325406835304Q346.2374006226876 248.73739538194718 352.9545721673072 251.26264784233052Q359.6969962365308 253.8131528273177 365.50507689541246 253.8131528273177L365.50507689541246 253.8131528273177Q373.1313393257702 253.8131528273177 376.2373998520417 249.44446607085453Q379.3182078537094 245.1010318389952 379.3182078537094 238.5353754419985L379.3182078537094 238.5353754419985L379.3182078537094 238.005072425318Q379.3182078537094 237.09598153957998 379.59598562435156 236.08588055542666Q379.8737633949937 235.10103209587714 380.9596219529585 235.10103209587714L380.9596219529585 235.10103209587714Q382.77780372443453 235.10103209587714 383.0555814950767 237.44951688403364Q383.33335926571885 239.82325419679398 383.33335926571885 241.08588042698565L383.33335926571885 241.08588042698565Q383.33335926571885 246.54042574141369 380.4040664116742 250.1010317105542Q377.5000260822334 253.6363851550909 372.9545716535433 255.35355682815157Q368.4091172248534 257.09598102581606 363.51012745170965 257.09598102581606L363.51012745170965 257.09598102581606Q356.23740036580557 257.09598102581606 349.41921872277067 254.72224371305572Q342.60103707973553 252.37375892489922 335.7828554367005 248.91416305417403Q328.9646737936655 245.45456718344886 321.8687143799883 242.095981411139Q314.77275496631114 238.73739563882916 306.76770466689595 236.36365832606882Q298.7879068920846 233.98992101330848 289.4949778378739 233.98992101330848L289.4949778378739 233.98992101330848Q282.77780629325423 233.98992101330848 275.32831153512336 236.186890653842Q267.8788167769925 238.35860776977165 261.3131603799958 242.550526854008Q254.77275650760294 246.71719341364053 250.78285762019723 252.82830436776823Q246.76770620818772 258.9141627972921 246.76770620818772 266.7171928998766L246.76770620818772 266.7171928998766Q246.76770620818772 272.1717382143046 249.6969990622324 277.4495158565058Q252.60103939167325 282.727293498707 257.50002916481697 286.18688936943215Q262.42427146256443 289.64648524015735 268.0555844492193 289.64648524015735L268.0555844492193 289.64648524015735Q271.51518031994453 289.64648524015735 273.9646752065163 288.35860648536186Q276.41417009308816 287.09598025517016 277.954574093922 285.90911159879Q279.4949780947559 284.7222429424098 280.4040689804939 284.7222429424098L280.4040689804939 284.7222429424098Q281.51518006306253 284.7222429424098 281.51518006306253 285.8081015003747L281.51518006306253 285.8081015003747Q281.51518006306253 288.00507114090817 278.33336196297955 289.7222428139688Q275.15154386289646 291.46466701163337 271.51518031994453 292.44951547118285Q267.8788167769925 293.4596164553362 266.0606350055165 293.4596164553362ZM303.51012899300144 362.9040591158781L303.51012899300144 362.9040591158781Q297.3232604650623 362.9040591158781 293.86366459433714 359.8990086880219Q290.4040687236119 356.9192107847696 289.0404323950049 352.1717361592489Q287.67679606639786 347.44951405833206 287.67679606639786 342.1717364161309L287.67679606639786 342.1717364161309Q287.67679606639786 332.5505245420703 289.59598793628925 320.10102991238045Q291.5151798061805 307.62628275808675 295.2273009229441 294.7222426855279Q298.9646745643114 281.818202612969 304.3182097803241 270.45456654124393Q309.6969975209406 259.09093046951887 316.41416906556026 251.9949710558417L316.41416906556026 251.9949710558417Q317.67679529575196 250.5555771534232 319.8737649362855 250.5555771534232L319.8737649362855 250.5555771534232Q321.1363911664772 250.5555771534232 322.77780526572633 251.18689026851902Q324.41921936497545 251.81820338361487 324.59598703720235 253.28284981063723L324.59598703720235 253.28284981063723L324.040431495918 254.72224371305572Q321.8687143799883 258.18183958378086 319.3182093950012 261.2626475854486Q316.76770441001406 264.3687081117201 314.59598729408435 268.0050716546721L314.59598729408435 268.0050716546721Q305.1515430922507 283.8131520566718 299.0404321381229 302.62628288652775Q292.9545737085991 321.4646662409874 292.9545737085991 340.176786972428L292.9545737085991 340.176786972428Q292.9545737085991 343.81315051538 293.33336157765655 347.7272918289742Q293.68689692211024 351.6414331425684 295.50507869358626 354.722241144236Q297.3232604650623 357.8283016705076 301.51517954929864 359.0909279006993L301.51517954929864 359.0909279006993Q302.42427043503665 359.2676955729261 303.585886566813 359.8232511142104Q304.77275522319314 360.35355413089087 304.77275522319314 361.6414328856864L304.77275522319314 361.6414328856864Q304.77275522319314 362.9040591158781 303.51012899300144 362.9040591158781ZM341.8687138662244 378.18183650119727L341.8687138662244 378.18183650119727Q337.8788149788187 378.18183650119727 335.68184533828514 375.353553745568Q333.51012822235555 372.5505235145424 333.51012822235555 368.7373922993636L333.51012822235555 368.7373922993636Q333.51012822235555 367.44951354456816 334.3182090096782 364.444463116712Q335.15154232160467 361.4646652134596 336.9697240930807 361.4646652134596L336.9697240930807 361.4646652134596Q338.0555826510456 361.4646652134596 338.4091179954993 362.37375609919764Q338.7879058645567 363.28284698493565 338.7879058645567 364.36870554290044L338.7879058645567 364.36870554290044Q338.7879058645567 365.63133177309214 338.5858856677261 366.91921052788757Q338.4091179954993 368.18183675807927 338.4091179954993 368.9141599715905L338.4091179954993 368.9141599715905Q338.4091179954993 370.7323417430664 339.1414412090104 372.44951341612716Q339.8737644225216 374.19193761379165 342.2222492106781 374.19193761379165L342.2222492106781 374.19193761379165Q344.040430982154 374.19193761379165 345.32830973694956 373.63638207250733L345.32830973694956 373.63638207250733Q357.8788144650548 369.8232508573285 368.0555818803997 360.1767864586641Q378.2323492957445 350.5555745846035 385.9596218245176 337.37375674140253Q393.68689435329054 324.19193889820144 398.86366189707644 309.5454746279781Q404.04042944086234 294.8990103577547 406.69194452426484 280.63133395658883Q409.3182070830635 266.36365755542295 409.3182070830635 254.89901138528256L409.3182070830635 254.89901138528256Q409.3182070830635 248.53537518511652 406.3131566552073 243.81315308419968Q403.33335875195496 239.09093098328282 396.41416701050457 239.09093098328282L396.41416701050457 239.09093098328282Q389.1414399246006 239.09093098328282 381.8687128386965 243.00507229687702Q374.59598575279256 246.9192136104712 367.9545717819843 253.3586073844487Q361.3131578111761 259.8232536830301 356.1363902673903 267.6262837856146Q350.9596227236044 275.45456641280293 347.9545722957482 283.3586066138028Q344.94952186789203 291.2626468148027 344.94952186789203 298.18183855625307L344.94952186789203 298.18183855625307Q344.94952186789203 302.17173744365874 346.76770363936805 305.5555757405724Q348.58588541084407 308.91416151288223 353.33336003636475 308.91416151288223L353.33336003636475 308.91416151288223Q359.6969962365308 308.91416151288223 365.4040667969972 307.27274741363306Q371.1363898820673 305.6313333143839 375.7828544091727 303.4596161984542Q380.4040664116742 301.26264655792073 383.4091168395304 299.6464849832754Q386.4141672673866 298.0050708840262 387.1464904808977 298.0050708840262L387.1464904808977 298.0050708840262Q387.8788136944089 298.0050708840262 387.8788136944089 298.5353739007067L387.8788136944089 298.5353739007067Q387.67679349757816 298.9141617697642 386.9697228086709 299.6464849832754L386.9697228086709 299.6464849832754Q380.2272987394474 305.1010302977034 371.59093532493637 308.91416151288223Q362.95457191042533 312.7272927280611 354.04043072527213 312.7272927280611L354.04043072527213 312.7272927280611Q346.76770363936805 312.7272927280611 342.0454815384512 309.1919392835244Q337.3232594375344 305.6313333143839 337.3232594375344 297.8283032117994L337.3232594375344 297.8283032117994Q337.3232594375344 290.35355592906467 341.1363906527133 281.54042484232684Q344.94952186789203 272.72729375558896 351.4141681664735 263.9899202426626Q357.8788144650548 255.27779925434007 365.85861223986615 248.00507216843602Q373.86366253928134 240.732345082532 382.2222481831502 236.36365832606882Q390.60608635162293 231.99497156960564 398.2323487819806 231.99497156960564L398.2323487819806 231.99497156960564Q404.04042944086234 231.99497156960564 407.878813180645 235.63133511255765Q411.69194439582384 239.26769865550966 413.5858837411114 244.54547629771085Q415.50507561100267 249.82325393991204 415.50507561100267 254.89901138528256L415.50507561100267 254.89901138528256Q415.50507561100267 267.0959807689341 412.5000251831465 281.71719251455363Q409.4949747552903 296.36365678477705 403.68689409640865 311.54042407168095Q397.8788134375269 326.71719135858484 389.4949752690542 340.176786972428Q381.1363896251854 353.6363825862712 370.32830909474467 363.45961465716243Q359.4949760397002 373.28284672805364 346.59093596714126 377.27274561545926L346.59093596714126 377.27274561545926Q344.24245117898477 378.18183650119727 341.8687138662244 378.18183650119727Z " fill="BLUE" transform="matrix(1.093680899531238,0,0,1.093680899531238,0,-31.58418485693852)"/><path d="M545.1515481925252 371.262644759747L545.1515481925252 371.262644759747Q539.4949826812664 371.262644759747 535.7828615645029 368.0808266596639Q532.0454879231355 364.8990085595809 532.0454879231355 359.0909279006993L532.0454879231355 359.0909279006993Q532.0454879231355 357.62628147367695 532.878821235062 354.6464835704246Q533.6869020223847 351.6414331425684 535.0505383509918 348.9899180591659Q536.4141746795988 346.36365550036714 538.0555887788479 346.36365550036714L538.0555887788479 346.36365550036714Q539.1414473368128 346.36365550036714 539.1414473368128 347.8283019273895L539.1414473368128 347.8283019273895Q539.1414473368128 349.44446350203486 537.3232655653368 351.9192109132106Q535.5050837938608 354.36870579978233 535.5050837938608 358.1818370149613L535.5050837938608 358.1818370149613Q535.5050837938608 361.6414328856864 537.5000332375636 363.45961465716243Q539.4949826812664 365.27779642863845 542.7778108797648 365.27779642863845L542.7778108797648 365.27779642863845Q551.1363965236336 365.27779642863845 561.237406365167 361.6414328856864Q571.3131636820966 358.0050693427344 581.1363957529878 351.994968487022Q590.959627823879 346.01012015591357 598.686900352652 338.6363829715941Q606.4141728814251 331.2626457872748 609.8737687521501 323.6363833569171L609.8737687521501 323.6363833569171Q611.1363949823418 321.08587837193 611.1363949823418 318.9141612560003L611.1363949823418 318.9141612560003Q611.1363949823418 314.8990098439907 607.6767991116167 313.9141613844413Q604.2424557654953 312.9040604002879 601.3131629114506 312.9040604002879L601.3131629114506 312.9040604002879Q590.2273046103677 312.9040604002879 578.0555877513201 314.19193915508345Q565.8586183676686 315.45456538527503 553.6869015086207 315.45456538527503L553.6869015086207 315.45456538527503Q548.0555885219659 315.45456538527503 542.8788209781801 313.8131512860259Q537.6768009097904 312.1717371867767 534.3182151374806 308.3586059715979Q530.9596293651707 304.5454747564191 530.9596293651707 298.0050708840262L530.9596293651707 298.0050708840262Q530.9596293651707 290.00002058461104 536.0606393351451 281.9949702851958Q541.1363967805156 273.9899199857806 548.8636693092886 266.91921309670727Q556.5909418380617 259.8232536830301 565.0505375803458 254.44446594241356Q573.51013332263 249.09093072640087 580.0505371950229 246.36365806918684L580.0505371950229 246.36365806918684Q586.4141733951889 243.81315308419968 592.6767994969397 242.17173898495048Q598.9646781232942 240.55557741030518 605.6818496679138 240.55557741030518L605.6818496679138 240.55557741030518L608.232354652901 240.55557741030518Q614.9495261975206 240.55557741030518 621.5151825945173 242.550526854008Q628.0555864669103 244.54547629771085 632.4242732233735 249.1919408248162Q636.7677074552329 253.8131528273177 636.7677074552329 261.64143545450605L636.7677074552329 261.64143545450605Q636.7677074552329 263.0808293569246 636.3131620123637 266.46466765383826Q635.8586165694948 269.8232534261481 634.7727580115298 272.62628365717364Q633.6868994535652 275.45456641280293 631.6919500098624 275.45456641280293L631.6919500098624 275.45456641280293Q630.7828591241242 275.45456641280293 630.7828591241242 274.36870785483814L630.7828591241242 274.36870785483814Q630.7828591241242 271.9949705420778 631.6919500098624 269.6464857539213Q632.6010408956002 267.27274844116096 632.6010408956002 264.89901112840056L632.6010408956002 264.89901112840056Q632.6010408956002 258.35860725600776 628.7879096804214 254.1919406963752Q624.9495259406386 250.00002161213885 619.3182129539839 248.00507216843602Q613.6868999673289 246.01012272473318 607.8788193084473 246.01012272473318L607.8788193084473 246.01012272473318Q600.6060922225432 246.01012272473318 591.5151833651634 248.73739538194718Q582.4242745077833 251.4646680391612 573.3333656504032 256.3636578123049Q564.2424567930232 261.2626475854486 556.5151842642501 267.90406155625675Q548.7879117354771 274.5454755270649 544.0404371099564 282.17173795742264Q539.3182150090396 289.8232529123842 539.3182150090396 298.0050708840262L539.3182150090396 298.0050708840262Q539.3182150090396 301.9949697714319 541.7677098956115 304.82325252706124Q544.2424573067871 307.62628275808675 547.9545784235506 309.0909291851091Q551.6919520649179 310.5555756121314 555.1515479356432 310.5555756121314L555.1515479356432 310.5555756121314Q567.3232647946909 310.5555756121314 579.2424564077002 308.63638374224007Q591.1363954961058 306.71719187234874 602.9545770106998 306.71719187234874L602.9545770106998 306.71719187234874Q606.4141728814251 306.71719187234874 609.8737687521501 307.5505251842752Q613.3333646228754 308.3586059715979 615.6060918372203 310.63133318594294Q617.8788190515653 312.9040604002879 617.8788190515653 317.09597948452426L617.8788190515653 317.09597948452426Q617.8788190515653 324.7222419148819 612.6010414093643 332.44951444365495Q607.323263767163 340.176786972428 598.9646781232942 347.1717362876899Q590.6060924794252 354.19193812755555 580.6818503101188 359.6464834419836Q570.782860665416 365.10102875641155 561.4141740373938 368.18183675807927Q552.0454874093716 371.262644759747 545.1515481925252 371.262644759747ZM650.6060909381334 293.4596164553362L650.6060909381334 293.4596164553362Q643.5101315244564 293.4596164553362 637.500030668744 289.64648524015735Q631.5151823376353 285.8081015003747 627.8788187946833 279.545475398624Q624.2424552517315 273.2828492968733 624.2424552517315 266.36365755542295L624.2424552517315 266.36365755542295Q624.2424552517315 257.2727486980429 628.686899582006 250.1767892843657Q633.1313439122808 243.08082987068852 640.3283134243733 238.1818400975448Q647.500030411862 233.28285032440112 656.0606362525615 230.73234533941397Q664.5959895686573 228.18184035442678 672.6010398680725 228.18184035442678L672.6010398680725 228.18184035442678Q682.0454840699061 228.18184035442678 690.7828575828324 230.73234533941397Q699.494978571155 233.28285032440112 707.676796542797 237.09598153957998Q715.8586145144392 240.90911275475884 723.3333617971738 244.82325406835304Q730.7828565553046 248.73739538194718 737.5000280999242 251.26264784233052Q744.2424521691479 253.8131528273177 750.0505328280295 253.8131528273177L750.0505328280295 253.8131528273177Q757.6767952583872 253.8131528273177 760.7828557846586 249.44446607085453Q763.8636637863264 245.1010318389952 763.8636637863264 238.5353754419985L763.8636637863264 238.5353754419985L763.8636637863264 238.005072425318Q763.8636637863264 237.09598153957998 764.1414415569685 236.08588055542666Q764.4192193276107 235.10103209587714 765.5050778855756 235.10103209587714L765.5050778855756 235.10103209587714Q767.3232596570516 235.10103209587714 767.6010374276938 237.44951688403364Q767.8788151983359 239.82325419679398 767.8788151983359 241.08588042698565L767.8788151983359 241.08588042698565Q767.8788151983359 246.54042574141369 764.9495223442913 250.1010317105542Q762.0454820148503 253.6363851550909 757.5000275861604 255.35355682815157Q752.9545731574705 257.09598102581606 748.0555833843267 257.09598102581606L748.0555833843267 257.09598102581606Q740.7828562984226 257.09598102581606 733.9646746553877 254.72224371305572Q727.1464930123526 252.37375892489922 720.3283113693175 248.91416305417403Q713.5101297262826 245.45456718344886 706.4141703126053 242.095981411139Q699.3182108989282 238.73739563882916 691.313160599513 236.36365832606882Q683.3333628247016 233.98992101330848 674.040433770491 233.98992101330848L674.040433770491 233.98992101330848Q667.3232622258712 233.98992101330848 659.8737674677403 236.186890653842Q652.4242727096095 238.35860776977165 645.8586163126128 242.550526854008Q639.31821244022 246.71719341364053 635.3283135528142 252.82830436776823Q631.3131621408048 258.9141627972921 631.3131621408048 266.7171928998766L631.3131621408048 266.7171928998766Q631.3131621408048 272.1717382143046 634.2424549948495 277.4495158565058Q637.1464953242902 282.727293498707 642.0454850974339 286.18688936943215Q646.9697273951814 289.64648524015735 652.6010403818362 289.64648524015735L652.6010403818362 289.64648524015735Q656.0606362525615 289.64648524015735 658.5101311391333 288.35860648536186Q660.9596260257052 287.09598025517016 662.5000300265391 285.90911159879Q664.040434027373 284.7222429424098 664.9495249131108 284.7222429424098L664.9495249131108 284.7222429424098Q666.0606359956795 284.7222429424098 666.0606359956795 285.8081015003747L666.0606359956795 285.8081015003747Q666.0606359956795 288.00507114090817 662.8788178955966 289.7222428139688Q659.6969997955135 291.46466701163337 656.0606362525615 292.44951547118285Q652.4242727096095 293.4596164553362 650.6060909381334 293.4596164553362ZM688.0555849256185 362.9040591158781L688.0555849256185 362.9040591158781Q681.8687163976793 362.9040591158781 678.4091205269541 359.8990086880219Q674.9495246562288 356.9192107847696 673.585888327622 352.1717361592489Q672.2222519990149 347.44951405833206 672.2222519990149 342.1717364161309L672.2222519990149 342.1717364161309Q672.2222519990149 332.5505245420703 674.1414438689063 320.10102991238045Q676.0606357387975 307.62628275808675 679.7727568555612 294.7222426855279Q683.5101304969284 281.818202612969 688.863665712941 270.45456654124393Q694.2424534535577 259.09093046951887 700.9596249981772 251.9949710558417L700.9596249981772 251.9949710558417Q702.2222512283689 250.5555771534232 704.4192208689025 250.5555771534232L704.4192208689025 250.5555771534232Q705.6818470990942 250.5555771534232 707.3232611983434 251.18689026851902Q708.9646752975924 251.81820338361487 709.1414429698194 253.28284981063723L709.1414429698194 253.28284981063723L708.5858874285351 254.72224371305572Q706.4141703126053 258.18183958378086 703.8636653276182 261.2626475854486Q701.313160342631 264.3687081117201 699.1414432267014 268.0050716546721L699.1414432267014 268.0050716546721Q689.6969990248678 283.8131520566718 683.58588807074 302.62628288652775Q677.5000296412162 321.4646662409874 677.5000296412162 340.176786972428L677.5000296412162 340.176786972428Q677.5000296412162 343.81315051538 677.8788175102735 347.7272918289742Q678.2323528547273 351.6414331425684 680.0505346262033 354.722241144236Q681.8687163976793 357.8283016705076 686.0606354819157 359.0909279006993L686.0606354819157 359.0909279006993Q686.9697263676536 359.2676955729261 688.1313424994299 359.8232511142104Q689.3182111558102 360.35355413089087 689.3182111558102 361.6414328856864L689.3182111558102 361.6414328856864Q689.3182111558102 362.9040591158781 688.0555849256185 362.9040591158781ZM726.4141697988415 378.18183650119727L726.4141697988415 378.18183650119727Q722.4242709114357 378.18183650119727 720.2273012709021 375.353553745568Q718.0555841549725 372.5505235145424 718.0555841549725 368.7373922993636L718.0555841549725 368.7373922993636Q718.0555841549725 367.44951354456816 718.8636649422953 364.444463116712Q719.6969982542217 361.4646652134596 721.5151800256978 361.4646652134596L721.5151800256978 361.4646652134596Q722.6010385836627 361.4646652134596 722.9545739281162 362.37375609919764Q723.3333617971738 363.28284698493565 723.3333617971738 364.36870554290044L723.3333617971738 364.36870554290044Q723.3333617971738 365.63133177309214 723.131341600343 366.91921052788757Q722.9545739281162 368.18183675807927 722.9545739281162 368.9141599715905L722.9545739281162 368.9141599715905Q722.9545739281162 370.7323417430664 723.6868971416274 372.44951341612716Q724.4192203551387 374.19193761379165 726.7677051432951 374.19193761379165L726.7677051432951 374.19193761379165Q728.5858869147711 374.19193761379165 729.8737656695665 373.63638207250733L729.8737656695665 373.63638207250733Q742.4242703976719 369.8232508573285 752.6010378130167 360.1767864586641Q762.7778052283614 350.5555745846035 770.5050777571347 337.37375674140253Q778.2323502859075 324.19193889820144 783.4091178296934 309.5454746279781Q788.5858853734793 294.8990103577547 791.2374004568818 280.63133395658883Q793.8636630156806 266.36365755542295 793.8636630156806 254.89901138528256L793.8636630156806 254.89901138528256Q793.8636630156806 248.53537518511652 790.8586125878243 243.81315308419968Q787.8788146845719 239.09093098328282 780.9596229431216 239.09093098328282L780.9596229431216 239.09093098328282Q773.6868958572176 239.09093098328282 766.4141687713135 243.00507229687702Q759.1414416854096 246.9192136104712 752.5000277146013 253.3586073844487Q745.8586137437932 259.8232536830301 740.6818462000073 267.6262837856146Q735.5050786562214 275.45456641280293 732.5000282283653 283.3586066138028Q729.494977800509 291.2626468148027 729.494977800509 298.18183855625307L729.494977800509 298.18183855625307Q729.494977800509 302.17173744365874 731.313159571985 305.5555757405724Q733.131341343461 308.91416151288223 737.8788159689817 308.91416151288223L737.8788159689817 308.91416151288223Q744.2424521691479 308.91416151288223 749.9495227296142 307.27274741363306Q755.6818458146844 305.6313333143839 760.3283103417897 303.4596161984542Q764.9495223442913 301.26264655792073 767.9545727721473 299.6464849832754Q770.9596232000036 298.0050708840262 771.6919464135148 298.0050708840262L771.6919464135148 298.0050708840262Q772.4242696270259 298.0050708840262 772.4242696270259 298.5353739007067L772.4242696270259 298.5353739007067Q772.2222494301951 298.9141617697642 771.515178741288 299.6464849832754L771.515178741288 299.6464849832754Q764.7727546720645 305.1010302977034 756.1363912575533 308.91416151288223Q747.5000278430424 312.7272927280611 738.5858866578891 312.7272927280611L738.5858866578891 312.7272927280611Q731.313159571985 312.7272927280611 726.5909374710683 309.1919392835244Q721.8687153701513 305.6313333143839 721.8687153701513 297.8283032117994L721.8687153701513 297.8283032117994Q721.8687153701513 290.35355592906467 725.6818465853304 281.54042484232684Q729.494977800509 272.72729375558896 735.9596240990905 263.9899202426626Q742.4242703976719 255.27779925434007 750.4040681724831 248.00507216843602Q758.4091184718983 240.732345082532 766.7677041157673 236.36365832606882Q775.15154228424 231.99497156960564 782.7778047145977 231.99497156960564L782.7778047145977 231.99497156960564Q788.5858853734793 231.99497156960564 792.4242691132621 235.63133511255765Q796.2374003284409 239.26769865550966 798.1313396737283 244.54547629771085Q800.0505315436197 249.82325393991204 800.0505315436197 254.89901138528256L800.0505315436197 254.89901138528256Q800.0505315436197 267.0959807689341 797.0454811157634 281.71719251455363Q794.0404306879074 296.36365678477705 788.2323500290257 311.54042407168095Q782.4242693701439 326.71719135858484 774.0404312016711 340.176786972428Q765.6818455578024 353.6363825862712 754.8737650273616 363.45961465716243Q744.0404319723172 373.28284672805364 731.1363918997582 377.27274561545926L731.1363918997582 377.27274561545926Q728.7879071116018 378.18183650119727 726.4141697988415 378.18183650119727Z " fill="black" transform="matrix(1.093680899531238,0,0,1.093680899531238,0,-31.58418485693852)"/></g></svg>