<svg xmlns="http://www.w3.org/2000/svg" version="1.1" xmlns:xlink="http://www.w3.org/1999/xlink" xmlns:svgjs="http://svgjs.dev/svgjs" width="100%" height="100%" viewBox="0 0 1000 600"><rect width="1000" height="600" x="0" y="0" fill="#4B0082"/><g><rect width="333.3333333333333" height="333.3333333333333" rx="13.333333333333334" ry="13.333333333333334" y="377.5106263206762" fill="#d4af37" transform="matrix(0.35182682373580415,0,0,0.35182682373580415,-2.0283532770201083,108.5438141751128)" x="364.18289184570307"/><path d="M423.78598963004055 617.9533757878903L417.83722354334776 617.9533757878903L381.1484221761372 508.9401025245727Q377.6759367092639 498.06723819387105 375.62660102389606 491.805379155247Q373.5772653385282 485.5719831122532 372.5525974958443 481.04636680706585L372.5525974958443 481.04636680706585Q369.6778349372033 481.2740707721067 366.80307237856226 481.2740707721067Q363.92830981992125 481.2740707721067 361.05354726128024 481.4733117415175L361.05354726128024 481.4733117415175L361.05354726128024 472.4505421267729L410.86378961397105 472.4505421267729L410.86378961397105 479.22473508673886Q398.9662574405854 479.82245799497116 396.6322917989165 484.54731526956925Q394.2698631616175 489.24370954853725 397.54310765908 501.53972366074436L397.54310765908 501.53972366074436Q401.0155931259533 515.0881095806762 405.114264496689 525.9325109157478Q409.21293586742473 536.8053752464494 413.1123662687496 549.3006303280673L413.1123662687496 549.3006303280673Q415.9871288273907 558.5226409122226 418.94728037292197 566.3215017148725Q421.93589491408346 574.0918995218924 425.00989844213524 583.7408550404994L425.00989844213524 583.7408550404994L425.4083803809567 583.7408550404994Q426.43304822364064 580.239906577996 427.571568048845 576.340476176671Q428.6816248784193 572.4695087709761 429.9339966861441 568.7693193390619Q431.15790549823873 565.0691299071477 432.18257334092266 561.9097373922057Q433.20724118360664 558.7218818816334 433.80496409183894 556.6725461962656L433.80496409183894 556.6725461962656Q439.5544892091209 538.4277659973657 445.1901623438825 521.3215056236702Q450.82583547864414 504.2152452499746 455.12374781879055 491.20765624701477Q459.4216601589371 478.20006724405494 461.0725139054834 472.0520601879514L461.0725139054834 472.0520601879514L467.6190029004084 472.0520601879514Q469.4690976163655 478.79779015228723 472.97004607886896 489.24370954853725Q476.4425315457422 499.71809194041737 480.34196194706715 511.1886791793513Q484.24139234839214 522.6592664182853 487.60002583274496 532.9059448451245Q490.987122312728 543.1526232719638 493.0364579980958 549.3006303280673L493.0364579980958 549.3006303280673Q495.91122055673685 558.5226409122226 499.099076067309 567.5454105269672Q502.25846858225117 576.5681801417118 504.93399017148135 586.1886726646887L504.93399017148135 586.1886726646887L505.5317130797137 586.1886726646887Q507.38180779567074 580.239906577996 509.544995463559 573.4941766136601Q511.6797201358172 566.719983653694 513.956759786226 559.7465497243173L513.956759786226 559.7465497243173Q519.2793399690563 544.5757730534692 522.6664364490393 534.32909462663Q526.0250699333922 524.0824161997907 528.1882576012804 517.3366862354549Q530.3514452691688 510.5624932754889 531.8884470331946 505.5530060445897Q533.4254487972205 500.51505581806043 535.0478395481368 495.81866153909243L535.0478395481368 495.81866153909243Q536.2717483602314 492.31771307658903 537.8087501242574 488.33289368837376Q539.3457518882833 484.3480743001585 541.3950875736512 480.8471258376551L541.3950875736512 480.8471258376551Q537.2964162029155 481.04636680706585 533.1977448321798 481.1602187895863Q529.099073461444 481.2740707721067 525.0004020907083 481.4733117415175L525.0004020907083 481.4733117415175L525.0004020907083 472.4505421267729L566.6133017019276 472.4505421267729L566.6133017019276 479.22473508673886Q559.639867772551 480.0216989643819 555.6550483843357 482.29873861479064Q551.6417660004902 484.54731526956925 548.5677624724385 490.6953223256728Q545.4937589443869 496.84332938177636 541.1958466042404 509.537825432805L541.1958466042404 509.537825432805Q531.7745950506742 537.4030981546817 522.8656774184501 564.357555016395Q513.956759786226 591.3120118781083 504.30780426761896 617.9533757878903L504.30780426761896 617.9533757878903L498.15979721151547 617.9533757878903L467.0212799921761 529.0065144437996Q465.17118527621903 523.6839342609692 463.4349425427824 518.5605950475496Q461.6986998093458 513.4372558341299 459.84860509338864 508.3139166207103L459.84860509338864 508.3139166207103Q458.1977513468424 513.4372558341299 456.46150861340567 518.5605950475496Q454.725265879969 523.6839342609692 453.0744121334227 528.8072734743888L453.0744121334227 528.8072734743888L423.78598963004055 617.9533757878903ZM695.5222089106915 518.162113108728L688.1502930424933 518.162113108728Q686.1009573571255 498.8926650671442 674.7157591050818 488.21904170585333Q663.3305608530382 477.57388134019254 645.51272558859 477.57388134019254L645.51272558859 477.57388134019254Q634.6398612578882 477.57388134019254 625.1332207174319 482.1848866322702Q615.5981171813453 486.79589192434787 608.4254422825579 495.3917166046408Q601.2527673837703 504.01600428056383 597.1540960130346 516.1127774233602Q593.0554246422989 528.1810875705264 593.0554246422989 543.3518642413745L593.0554246422989 543.3518642413745Q593.0554246422989 562.6213122829583 600.4273405104971 577.3651440193548Q607.7992563786954 592.1374387513815 620.2945114603133 600.3347814928529Q632.8182295375614 608.5321242343243 647.9605432127794 608.5321242343243L647.9605432127794 608.5321242343243Q661.2812251676703 608.5321242343243 674.2034251837399 602.4695061651109Q687.1256251998093 596.435351091528 695.3229679412807 584.9647638525939L695.3229679412807 584.9647638525939L700.6455481241112 589.2626761927404Q691.8220194787773 601.3594493355367 681.575341051938 607.9059383304618Q671.3286626250988 614.4808903210171 661.1958361807801 616.8148559626859Q651.034546740831 619.1772845999851 642.6379630299489 619.1772845999851L642.6379630299489 619.1772845999851Q627.2679453896901 619.1772845999851 614.4595973561409 613.6554634477438Q601.6512493225919 608.1051792998726 592.3438497515463 598.1715938249645Q583.0079871848704 588.2380083500566 577.9984999539713 575.031178377686Q572.960549727442 561.7958854096852 572.960549727442 546.4258677694263L572.960549727442 546.4258677694263Q572.960549727442 531.8812770024406 577.3723140501088 518.162113108728Q581.7840783727759 504.41448621938537 590.5791440224796 493.34238091927295Q599.4026726678132 482.29873861479064 612.8372066052248 475.72378662423546Q626.2432775470061 469.1772976293104 644.0895758070844 469.1772976293104L644.0895758070844 469.1772976293104Q655.5601630460185 469.1772976293104 665.8068414728577 472.25130115736215Q676.053519899697 475.3253046854139 685.474771453263 481.67255271092824L685.474771453263 481.67255271092824L684.4501036105792 470.60044741081583L695.5222089106915 470.60044741081583L695.5222089106915 518.162113108728Z " fill="#4b0082" transform="matrix(0.35182682373580415,0,0,0.35182682373580415,-2.0283532770201083,108.5438141751128)"/><path d="M840.4063827315539 618.0153441368382L834.7587522795387 618.0153441368382L799.9271941328999 514.5204894420156Q796.6304911896185 504.1980261278062 794.6848960099768 498.25315196779025Q792.7393008303353 492.33529996304713 791.7665032405145 488.038777274672L791.7665032405145 488.038777274672Q789.0372655579617 488.2549545168544 786.308027875409 488.2549545168544Q783.5787901928562 488.2549545168544 780.8495525103034 488.444109603764L780.8495525103034 488.444109603764L780.8495525103034 479.87808638228654L828.1383242377027 479.87808638228654L828.1383242377027 486.3093593372128Q816.8430633336726 486.8768245979416 814.627246601303 491.36250237322633Q812.3844077136606 495.82115799323833 815.4919555700325 507.4947290710877L815.4919555700325 507.4947290710877Q818.7886585133141 520.3572749809404 822.6798488725973 530.6527161398769Q826.5710392318805 540.9751794540864 830.2730745042539 552.8379056188455L830.2730745042539 552.8379056188455Q833.0023121868068 561.5930839272326 835.812616335178 568.9971544719797Q838.6499426388218 576.374202861454 841.5683354082843 585.5347134989331L841.5683354082843 585.5347134989331L841.9466455821033 585.5347134989331Q842.9194431719242 582.2109884003787 844.0003293828362 578.5089531280053Q845.0541934384754 574.8339400109044 846.2431682704786 571.3210598254404Q847.405120947209 567.8081796399765 848.3779185370297 564.8087204046957Q849.3507161268504 561.7822390141421 849.9181813875792 559.8366438345006L849.9181813875792 559.8366438345006Q855.3766567526848 542.515442304636 860.7270434966991 526.2751269856835Q866.0774302407134 510.0348116667309 870.1577756869061 497.68568670706145Q874.2381211330988 485.336561747392 875.8054061389213 479.4997762084673L875.8054061389213 479.4997762084673L882.0205018516652 479.4997762084673Q883.7769419443972 485.9040270081208 887.1006670429516 495.82115799323833Q890.397369986233 505.76531113362853 894.0994052586067 516.6552397085668Q897.8014405309801 527.5451682835051 900.9900548531706 537.273144181713Q904.2056913306336 547.0011200799208 906.1512865102753 552.8379056188455L906.1512865102753 552.8379056188455Q908.8805241928281 561.5930839272326 911.9070055833816 570.1591071487101Q914.9064648186624 578.7251303701876 917.4465474143054 587.8586188523939L917.4465474143054 587.8586188523939L918.0140126750342 587.8586188523939Q919.7704527677662 582.2109884003787 921.8241365684991 575.8067376007252Q923.8507982139591 569.375464645799 926.0125706357829 562.7550366039629L926.0125706357829 562.7550366039629Q931.0657136717965 548.3522278435607 934.2813501492598 538.6242519453529Q937.46996447145 528.896276047145 939.5236482721829 522.4920252474915Q941.5773320729155 516.0607522925652 943.0365284576468 511.3048529645525Q944.4957248423779 506.52193148126696 946.0359876929275 502.063275861255L946.0359876929275 502.063275861255Q947.1979403696579 498.7395507627007 948.6571367543892 494.95644902450874Q950.1163331391202 491.17334728631675 952.0619283187617 487.8496221877624L952.0619283187617 487.8496221877624Q948.1707379594787 488.038777274672 944.2795476001955 488.1468658957632Q940.3883572409123 488.2549545168544 936.4971668816291 488.444109603764L936.4971668816291 488.444109603764L936.4971668816291 479.87808638228654L976.0035578904623 479.87808638228654L976.0035578904623 486.3093593372128Q969.3831298486263 487.0659796848512 965.6000281104344 489.2277521066752Q961.7899042169696 491.36250237322633 958.8715114475073 497.1992879121511Q955.9531186780449 503.0360734510758 951.8727732318522 515.0879547027444L951.8727732318522 515.0879547027444Q942.9284398365556 541.5426447148152 934.4705052361693 567.1326257581565Q926.0125706357829 592.7226068014977 916.8520599983038 618.0153441368382L916.8520599983038 618.0153441368382L911.0152744593792 618.0153441368382L881.4530365909364 533.5711089093394Q879.6965964982045 528.5179658733258 878.0482450265637 523.6539779242219Q876.3998935549229 518.789989975118 874.6434534621909 513.926002026014L874.6434534621909 513.926002026014Q873.0761684563685 518.789989975118 871.4278169847278 523.6539779242219Q869.779465513087 528.5179658733258 868.2121805072646 533.3819538224298L868.2121805072646 533.3819538224298L840.4063827315539 618.0153441368382ZM1068.6084840103467 616.0697489571967L1040.802686234636 616.0697489571967Q1040.2081988186342 612.7730460139151 1040.0190437317247 610.232963418272Q1039.8298886448151 607.6928808226287 1039.4245563157228 604.9906652953489L1039.4245563157228 604.9906652953489Q1032.8041282738873 611.5840711819119 1025.129836176412 615.3941950753767Q1017.4555440789369 619.1772968135685 1008.8895208574594 619.1772968135685L1008.8895208574594 619.1772968135685Q994.1084019232379 619.1772968135685 986.8934864654005 612.4758023059144Q979.705593162836 605.7472856429872 979.705593162836 596.0193097447793L979.705593162836 596.0193097447793Q979.705593162836 587.0749763494828 985.2451349937597 580.5626369287379Q990.7846768246837 574.0502975079933 999.6479437541619 569.8618634407094Q1008.4841885283673 565.6734293734253 1018.9147404636682 563.6467677279653Q1029.3182702436961 561.5930839272326 1039.0462461419038 561.7822390141421L1039.0462461419038 561.7822390141421L1039.0462461419038 549.7303577624735Q1039.0462461419038 542.920774633728 1037.8842934651734 536.8948340078937Q1036.6953186331702 530.8418712267866 1032.8041282738873 526.9506808675035Q1028.9129379146038 523.0594905082203 1020.3739368483992 522.8703354213108L1020.3739368483992 522.8703354213108Q1014.7263063963841 522.6811803344011 1008.7814322363682 525.0050856878619Q1002.8635802316252 527.3560131965954 1000.1343425490724 533.0036436486106L1000.1343425490724 533.0036436486106Q1001.674605399622 534.5439064991601 1002.1610041945324 536.5975902998929Q1002.6474029894426 538.6242519453529 1002.6474029894426 540.3806920380848L1002.6474029894426 540.3806920380848Q1002.6474029894426 542.7316195468184 1000.7018078098012 545.7310787820992Q998.7562126301597 548.7575601726528 993.8922246810556 548.5684050857432L993.8922246810556 548.5684050857432Q989.8118792348629 548.5684050857432 987.6771289683116 545.7310787820992Q985.5423787017606 542.920774633728 985.5423787017606 539.0295842744449L985.5423787017606 539.0295842744449Q985.5423787017606 532.4091562326089 990.4874331166828 527.1668581096858Q995.459509686878 521.8975378314899 1004.2146879952651 518.789989975118Q1012.9698663036521 515.6824421187459 1024.0489499655 515.6824421187459L1024.0489499655 515.6824421187459Q1040.3973539055437 515.6824421187459 1048.17973462411 524.3295318060418Q1055.9621153426765 533.0036436486106 1055.7729602557665 551.6759529421151L1055.7729602557665 551.6759529421151Q1055.7729602557665 558.8638462446797 1055.7729602557665 566.1598281683357Q1055.7729602557665 573.4558100919917 1055.6648716346754 580.7517920156477Q1055.583805168857 588.0477739393034 1055.583805168857 595.4518444840505L1055.583805168857 595.4518444840505Q1055.583805168857 598.5593923404224 1055.3946500819475 601.6669401967945Q1055.1784728397652 604.7744880531664 1054.8001626659461 608.6656784124496L1054.8001626659461 608.6656784124496Q1058.31304285141 608.47652332554 1061.7178344157828 608.2873682386303Q1065.1226259801556 608.0982131517208 1068.6084840103467 607.9090580648112L1068.6084840103467 607.9090580648112L1068.6084840103467 616.0697489571967ZM1039.0462461419038 568.4026670559781L1039.0462461419038 568.4026670559781Q1032.4258181000678 568.5918221428878 1025.129836176412 570.0510185276189Q1017.8338542527562 571.5102149123502 1011.6998250058306 574.4286076818125Q1005.565795758905 577.3470004512749 1001.7826940207132 582.1299219345603Q997.9995922825211 586.885821262573 998.1887473694309 593.6954043913186L998.1887473694309 593.6954043913186Q998.5670575432499 600.8832976938834 1002.9446466974435 604.5042665004385Q1007.322235851637 608.0982131517208 1013.3481764774714 608.0982131517208L1013.3481764774714 608.0982131517208Q1021.3467344382201 608.0982131517208 1027.2645864429633 605.0717317611673Q1033.209460602979 602.0722725258865 1039.0462461419038 596.6137971607809L1039.0462461419038 596.6137971607809Q1038.8570910549943 594.4790468942297 1038.8570910549943 591.9389642985866Q1038.8570910549943 589.4259038582163 1038.8570910549943 586.6966661756635L1038.8570910549943 586.6966661756635Q1038.8570910549943 585.7238685858426 1038.9381575208126 580.4545483076467Q1039.0462461419038 575.2122501847236 1039.0462461419038 568.4026670559781ZM1119.9776011839385 616.0697489571967L1080.282055088196 616.0697489571967L1080.282055088196 610.232963418272Q1086.3079957140303 610.232963418272 1088.5508346016727 607.2064820277185Q1090.793673489315 604.2070227924376 1091.1719836631341 598.8566360484233Q1091.5773159922264 593.506249304409 1091.5773159922264 586.507511088754L1091.5773159922264 586.507511088754L1091.766471079136 494.4700502295983Q1091.766471079136 491.36250237322633 1091.874559700227 488.52517606958236Q1091.9556261660455 485.7148719212112 1092.3609584951373 481.8236815619281L1092.3609584951373 481.8236815619281Q1088.8480783096734 482.0128366488377 1085.4432867453006 482.2019917357473Q1082.0384951809278 482.41816897792967 1078.525614995464 482.6073240648393L1078.525614995464 482.6073240648393L1078.525614995464 474.41961101718096Q1087.0916382169416 474.41961101718096 1091.766471079136 473.6629906695426Q1096.4413039413303 472.8793481666314 1098.8732979158822 471.71739548990104Q1101.305291890434 470.52842065789787 1102.656399654074 469.17731289425785L1102.656399654074 469.17731289425785L1108.3040301060892 469.17731289425785L1108.3040301060892 561.2147737534134L1116.0864108246556 561.2147737534134L1139.8118631541734 536.3003465918921Q1143.1355882527278 533.0036436486106 1145.8648259352808 530.3554724318763Q1148.5670414625606 527.7343233704146 1151.2962791451132 525.9778832776826L1151.2962791451132 525.9778832776826L1138.0824452167144 526.5723706936842L1138.0824452167144 518.789989975118L1173.481468624082 518.789989975118L1173.481468624082 524.6267755140427Q1166.861040582246 525.2212629300443 1161.1323436644125 528.8152095813266Q1155.3766245913062 532.4091562326089 1150.6207252632935 536.8948340078937Q1145.8648259352808 541.3534896279057 1142.3519457498169 545.0555249002791L1142.3519457498169 545.0555249002791L1127.1654944865031 560.998596511231Q1131.0566848457865 562.7550366039629 1133.7859225283391 565.4842742865158Q1136.5151602108922 568.2135119690686 1139.2443978934448 571.5102149123502L1139.2443978934448 571.5102149123502L1153.0527192378454 589.2097266160338Q1154.0255168276663 590.398701448037 1156.4575108022182 593.6954043913186Q1158.88950477677 596.9921073346002 1162.2942963411429 600.8832976938834Q1165.6990879055156 604.7744880531664 1169.4821896437074 607.5037257357192Q1173.2923135371725 610.232963418272 1176.5890164804537 610.232963418272L1176.5890164804537 610.232963418272L1176.5890164804537 616.0697489571967L1158.88950477677 616.0697489571967Q1153.4310294116644 616.0697489571967 1148.5670414625606 610.4221185051815Q1143.7030535134568 604.7744880531664 1138.271600303624 597.7757498375113L1138.271600303624 597.7757498375113Q1133.2184572676106 590.7770116218562 1129.219178287236 585.0483147040227Q1125.2198993068619 579.2925956309164 1122.0312849846714 575.0230950978141Q1118.8156485072082 570.7265724094389 1116.275565911565 568.4026670559781L1116.275565911565 568.4026670559781L1108.3040301060892 568.7809772297974L1108.3040301060892 595.4518444840505Q1108.3040301060892 599.3430348433337 1108.195941484998 602.3424940786144Q1108.1148750191796 605.3689754691679 1107.5203876031778 608.6656784124496L1107.5203876031778 608.6656784124496Q1110.62793545955 608.47652332554 1113.7625054711948 608.3954568597217Q1116.870053327567 608.2873682386303 1119.9776011839385 608.0982131517208L1119.9776011839385 608.0982131517208L1119.9776011839385 616.0697489571967ZM1273.490465288713 616.0697489571967L1245.6576453577295 616.0697489571967Q1245.090180097001 612.7730460139151 1244.8740028548186 610.232963418272Q1244.684847767909 607.6928808226287 1244.3065375940896 604.9906652953489L1244.3065375940896 604.9906652953489Q1237.6861095522536 611.5840711819119 1230.0118174547788 615.3941950753767Q1222.3105032020308 619.1772968135685 1213.7444799805535 619.1772968135685L1213.7444799805535 619.1772968135685Q1198.963361046332 619.1772968135685 1191.7754677437674 612.4758023059144Q1184.5605522859296 605.7472856429872 1184.5605522859296 596.0193097447793L1184.5605522859296 596.0193097447793Q1184.5605522859296 587.0749763494828 1190.1271162721264 580.5626369287379Q1195.6666581030504 574.0502975079933 1204.502902877256 569.8618634407094Q1213.366169806734 565.6734293734253 1223.7696995867618 563.6467677279653Q1234.1732293667897 561.5930839272326 1243.9012052649978 561.7822390141421L1243.9012052649978 561.7822390141421L1243.9012052649978 549.7303577624735Q1243.9012052649978 542.920774633728 1242.7392525882674 536.8948340078937Q1241.577299911537 530.8418712267866 1237.6861095522536 526.9506808675035Q1233.7949191929706 523.0594905082203 1225.2288959714929 522.8703354213108L1225.2288959714929 522.8703354213108Q1219.5812655194782 522.6811803344011 1213.663413514735 525.0050856878619Q1207.7185393547188 527.3560131965954 1204.9893016721662 533.0036436486106L1204.9893016721662 533.0036436486106Q1206.5565866779884 534.5439064991601 1207.042985472899 536.5975902998929Q1207.5293842678093 538.6242519453529 1207.5293842678093 540.3806920380848L1207.5293842678093 540.3806920380848Q1207.5293842678093 542.7316195468184 1205.583789088168 545.7310787820992Q1203.6381939085263 548.7575601726528 1198.7742059594225 548.5684050857432L1198.7742059594225 548.5684050857432Q1194.6938605132295 548.5684050857432 1192.5591102466783 545.7310787820992Q1190.3973378248543 542.920774633728 1190.3973378248543 539.0295842744449L1190.3973378248543 539.0295842744449Q1190.3973378248543 532.4091562326089 1195.3694143950497 527.1668581096858Q1200.3414909652447 521.8975378314899 1209.0966692736315 518.789989975118Q1217.8518475820188 515.6824421187459 1228.9309312438668 515.6824421187459L1228.9309312438668 515.6824421187459Q1245.2793351839105 515.6824421187459 1253.0617159024769 524.3295318060418Q1260.8440966210428 533.0036436486106 1260.6549415341333 551.6759529421151L1260.6549415341333 551.6759529421151Q1260.6549415341333 558.8638462446797 1260.6549415341333 566.1598281683357Q1260.6549415341333 573.4558100919917 1260.5468529130421 580.7517920156477Q1260.438764291951 588.0477739393034 1260.438764291951 595.4518444840505L1260.438764291951 595.4518444840505Q1260.438764291951 598.5593923404224 1260.2496092050415 601.6669401967945Q1260.060454118132 604.7744880531664 1259.6821439443124 608.6656784124496L1259.6821439443124 608.6656784124496Q1263.168001974504 608.47652332554 1266.5727935388768 608.2873682386303Q1269.977585103249 608.0982131517208 1273.490465288713 607.9090580648112L1273.490465288713 607.9090580648112L1273.490465288713 616.0697489571967ZM1243.9012052649978 568.4026670559781L1243.9012052649978 568.4026670559781Q1237.3077993784345 568.5918221428878 1230.0118174547788 570.0510185276189Q1222.715835531123 571.5102149123502 1216.5818062841972 574.4286076818125Q1210.4477770372719 577.3470004512749 1206.66467529908 582.1299219345603Q1202.854551405615 586.885821262573 1203.0437064925245 593.6954043913186L1203.0437064925245 593.6954043913186Q1203.4490388216168 600.8832976938834 1207.82662797581 604.5042665004385Q1212.2042171300036 608.0982131517208 1218.2301577558383 608.0982131517208L1218.2301577558383 608.0982131517208Q1226.2016935613137 608.0982131517208 1232.14656772133 605.0717317611673Q1238.064419726073 602.0722725258865 1243.9012052649978 596.6137971607809L1243.9012052649978 596.6137971607809Q1243.7120501780882 594.4790468942297 1243.7120501780882 591.9389642985866Q1243.7120501780882 589.4259038582163 1243.7120501780882 586.6966661756635L1243.7120501780882 586.6966661756635Q1243.7120501780882 585.7238685858426 1243.8201387991794 580.4545483076467Q1243.9012052649978 575.2122501847236 1243.9012052649978 568.4026670559781ZM1326.5890003997642 616.0697489571967L1286.9204764592946 616.0697489571967L1286.9204764592946 610.232963418272Q1292.9464170851288 610.232963418272 1295.2703224385896 607.2064820277185Q1297.6212499473231 604.2070227924376 1297.9995601211426 598.8566360484233Q1298.3778702949617 593.506249304409 1298.3778702949617 586.507511088754L1298.3778702949617 586.507511088754L1298.594047537144 542.1371321308168Q1298.594047537144 539.0295842744449 1298.6751140029623 535.9220364180729Q1298.7832026240535 532.7874664064282 1299.3506678847825 529.4907634631465L1299.3506678847825 529.4907634631465Q1295.8648098545914 529.6799185500562 1292.4600182902186 529.8690736369658Q1289.0552267258458 530.0852508791481 1285.542346540382 530.2744059660579L1285.542346540382 530.2744059660579L1285.542346540382 522.0866929183995Q1294.1083697618592 522.0866929183995 1298.4859589160528 521.3300725707611Q1302.8635480702465 520.54643006785 1304.9982983367977 519.3844773911196Q1307.133048603349 518.1955025591164 1308.5111785222616 516.8443947954763L1308.5111785222616 516.8443947954763L1314.1588089742768 516.8443947954763Q1314.3479640611863 518.1955025591164 1314.4290305270047 519.9519426518484Q1314.5371191480958 521.7083827445804 1314.7262742350053 523.8431330111315Q1314.9154293219149 525.9778832776826 1314.9154293219149 528.7071209602354L1314.9154293219149 528.7071209602354Q1319.2119520102901 525.0050856878619 1324.373183667395 522.0866929183995Q1329.5073931692268 519.1683001489372 1335.2631122423331 517.438882211478Q1340.9918091601667 515.6824421187459 1346.6394396121818 515.6824421187459L1346.6394396121818 515.6824421187459Q1363.5553088129545 515.6824421187459 1371.3376895315205 526.2751269856835Q1379.1200702500869 536.8948340078937 1379.1200702500869 559.2691785737718L1379.1200702500869 559.2691785737718L1379.1200702500869 595.4518444840505Q1379.1200702500869 599.3430348433337 1379.0390037842685 602.3424940786144Q1378.9309151631774 605.3689754691679 1378.3634499024483 608.6656784124496L1378.3634499024483 608.6656784124496Q1381.4709977588204 608.47652332554 1384.4704569941014 608.3954568597217Q1387.4969383846546 608.2873682386303 1390.6044862410267 608.0982131517208L1390.6044862410267 608.0982131517208L1390.6044862410267 616.0697489571967L1350.9089401452843 616.0697489571967L1350.9089401452843 610.232963418272Q1356.9619029263913 610.232963418272 1359.285808279852 607.2064820277185Q1361.6097136333128 604.2070227924376 1362.0150459624047 598.8566360484233Q1362.3933561362242 593.506249304409 1362.3933561362242 586.507511088754L1362.3933561362242 586.507511088754L1362.3933561362242 559.2691785737718Q1362.2042010493142 542.515442304636 1356.8538143053001 533.9764412384313Q1351.5034275612857 525.4104180169538 1340.0190115703458 525.5995731038635L1340.0190115703458 525.5995731038635Q1333.0202733546907 525.7887281907731 1326.3187788470364 529.301608376237Q1319.5902621841096 532.7874664064282 1315.1316065640976 538.2459417715337L1315.1316065640976 538.2459417715337Q1315.3207616510072 539.813226777356 1315.3207616510072 541.7588219569976Q1315.3207616510072 543.7044171366392 1315.3207616510072 545.8391674031905L1315.3207616510072 545.8391674031905L1315.1316065640976 595.4518444840505Q1315.1316065640976 599.3430348433337 1315.0235179430065 602.3424940786144Q1314.9154293219149 605.3689754691679 1314.3479640611863 608.6656784124496L1314.3479640611863 608.6656784124496Q1317.4555119175584 608.47652332554 1320.4819933081117 608.3954568597217Q1323.4814525433926 608.2873682386303 1326.5890003997642 608.0982131517208L1326.5890003997642 608.0982131517208L1326.5890003997642 616.0697489571967ZM1446.6484362768133 619.1772968135685L1446.6484362768133 619.1772968135685Q1434.7857101120544 619.1772968135685 1425.2468893007558 613.2594448088255Q1415.7080684894577 607.3145706488096 1410.1685266585337 596.2354869869616Q1404.6289848276097 585.129381169841 1404.6289848276097 570.1591071487101L1404.6289848276097 570.1591071487101Q1404.6289848276097 554.1890133824854 1411.0332356272634 541.9479770439073Q1417.4645085821899 529.6799185500562 1428.8408359520386 522.6811803344011Q1440.2171633218868 515.6824421187459 1454.6199720822892 515.6824421187459L1454.6199720822892 515.6824421187459Q1461.0512450372153 515.6824421187459 1467.3744293710506 517.3307935903867Q1473.6976137048855 518.9791450620276 1477.3726268219866 521.1138953285788L1477.3726268219866 521.1138953285788L1477.3726268219866 494.4700502295983Q1477.3726268219866 491.36250237322633 1477.4807154430778 488.52517606958236Q1477.588804064169 485.7148719212112 1477.967114237988 481.8236815619281L1477.967114237988 481.8236815619281Q1474.454234052524 482.0128366488377 1471.0494424881513 482.2019917357473Q1467.6446509237785 482.41816897792967 1464.1587928935874 482.6073240648393L1464.1587928935874 482.6073240648393L1464.1587928935874 474.41961101718096Q1472.724816115065 474.41961101718096 1477.3726268219866 473.6629906695426Q1482.047459684181 472.8793481666314 1484.4794536587328 471.71739548990104Q1486.9114476332848 470.52842065789787 1488.2895775521974 469.17731289425785L1488.2895775521974 469.17731289425785L1493.9101858489398 469.17731289425785L1493.9101858489398 595.4518444840505Q1493.9101858489398 598.5593923404224 1493.7210307620303 601.6669401967945Q1493.5318756751208 604.7744880531664 1493.1535655013017 608.6656784124496L1493.1535655013017 608.6656784124496Q1496.6394235314924 608.47652332554 1500.0442150958652 608.2873682386303Q1503.449006660238 608.0982131517208 1506.9618868457019 607.9090580648112L1506.9618868457019 607.9090580648112L1506.9618868457019 616.0697489571967L1479.1290669147184 616.0697489571967Q1478.5616016539898 613.1513561877343 1478.2643579459886 610.7193622131824Q1477.967114237988 608.2873682386303 1477.7779591510784 605.9634628851695L1477.7779591510784 605.9634628851695Q1472.3194837859728 611.989403511004 1464.3479479804969 615.5833501622863Q1456.376412175021 619.1772968135685 1446.6484362768133 619.1772968135685ZM1453.6471744924684 609.6384760022704L1453.6471744924684 609.6384760022704Q1460.0784474473949 609.6384760022704 1466.5907868681393 605.9634628851695Q1473.1031262888841 602.2614276127961 1477.3726268219866 596.8029522476904L1477.3726268219866 596.8029522476904Q1477.1834717350766 594.4790468942297 1477.1834717350766 591.8578978327682Q1477.1834717350766 589.2097266160338 1477.1834717350766 586.1021787596619L1477.1834717350766 586.1021787596619L1477.3726268219866 530.0852508791481Q1472.724816115065 526.5723706936842 1467.1582521288683 524.9240192220435Q1461.6187102979443 523.2756677504027 1455.7819247590196 523.2756677504027L1455.7819247590196 523.2756677504027Q1446.0539488608115 523.2756677504027 1438.866055558247 528.896276047145Q1431.6511401004095 534.5439064991601 1427.9761269833089 544.67721472646Q1424.2740917109354 554.783500798487 1424.6524018847545 568.4026670559781L1424.6524018847545 568.4026670559781Q1425.0577342138463 580.2653932207372 1428.462525778219 589.6150589451258Q1431.8673173425918 598.9377025142417 1438.1905016764272 604.2880892582559Q1444.513686010262 609.6384760022704 1453.6471744924684 609.6384760022704ZM1608.3219912739733 616.0697489571967L1580.4891713429897 616.0697489571967Q1579.9217060822612 612.7730460139151 1579.7325509953512 610.232963418272Q1579.5163737531689 607.6928808226287 1579.1380635793498 604.9906652953489L1579.1380635793498 604.9906652953489Q1572.5176355375138 611.5840711819119 1564.8433434400386 615.3941950753767Q1557.142029187291 619.1772968135685 1548.603028121086 619.1772968135685L1548.603028121086 619.1772968135685Q1533.7948870315918 619.1772968135685 1526.6069937290272 612.4758023059144Q1519.4191004264626 605.7472856429872 1519.4191004264626 596.0193097447793L1519.4191004264626 596.0193097447793Q1519.4191004264626 587.0749763494828 1524.9586422573866 580.5626369287379Q1530.4981840883106 574.0502975079933 1539.3614510177886 569.8618634407094Q1548.1976957919942 565.6734293734253 1558.601225572022 563.6467677279653Q1569.0317775073227 561.5930839272326 1578.7597534055308 561.7822390141421L1578.7597534055308 561.7822390141421L1578.7597534055308 549.7303577624735Q1578.7597534055308 542.920774633728 1577.5707785735272 536.8948340078937Q1576.4088258967972 530.8418712267866 1572.5176355375138 526.9506808675035Q1568.6264451782308 523.0594905082203 1560.060421956753 522.8703354213108L1560.060421956753 522.8703354213108Q1554.4398136600107 522.6811803344011 1548.4949394999949 525.0050856878619Q1542.550065339979 527.3560131965954 1539.8478498126992 533.0036436486106L1539.8478498126992 533.0036436486106Q1541.3881126632486 534.5439064991601 1541.8745114581593 536.5975902998929Q1542.3609102530695 538.6242519453529 1542.3609102530695 540.3806920380848L1542.3609102530695 540.3806920380848Q1542.3609102530695 542.7316195468184 1540.4153150734278 545.7310787820992Q1538.4697198937865 548.7575601726528 1533.6057319446822 548.5684050857432L1533.6057319446822 548.5684050857432Q1529.5253864984898 548.5684050857432 1527.3906362319385 545.7310787820992Q1525.2558859653873 542.920774633728 1525.2558859653873 539.0295842744449L1525.2558859653873 539.0295842744449Q1525.2558859653873 532.4091562326089 1530.2009403803095 527.1668581096858Q1535.173016950505 521.8975378314899 1543.9281952588917 518.789989975118Q1552.683373567279 515.6824421187459 1563.762457229127 515.6824421187459L1563.762457229127 515.6824421187459Q1580.1108611691707 515.6824421187459 1587.893241887737 524.3295318060418Q1595.675622606303 533.0036436486106 1595.4864675193935 551.6759529421151L1595.4864675193935 551.6759529421151Q1595.4864675193935 558.8638462446797 1595.4864675193935 566.1598281683357Q1595.4864675193935 573.4558100919917 1595.3783788983023 580.7517920156477Q1595.297312432484 588.0477739393034 1595.297312432484 595.4518444840505L1595.297312432484 595.4518444840505Q1595.297312432484 598.5593923404224 1595.0811351903017 601.6669401967945Q1594.8919801033921 604.7744880531664 1594.5136699295726 608.6656784124496L1594.5136699295726 608.6656784124496Q1597.9995279597638 608.47652332554 1601.4043195241366 608.2873682386303Q1604.8091110885093 608.0982131517208 1608.3219912739733 607.9090580648112L1608.3219912739733 607.9090580648112L1608.3219912739733 616.0697489571967ZM1578.7597534055308 568.4026670559781L1578.7597534055308 568.4026670559781Q1572.1393253636948 568.5918221428878 1564.8433434400386 570.0510185276189Q1557.5473615163828 571.5102149123502 1551.4133322694574 574.4286076818125Q1545.279303022532 577.3470004512749 1541.4962012843398 582.1299219345603Q1537.6860773908752 586.885821262573 1537.9022546330575 593.6954043913186L1537.9022546330575 593.6954043913186Q1538.280564806877 600.8832976938834 1542.6581539610702 604.5042665004385Q1547.0357431152638 608.0982131517208 1553.061683741098 608.0982131517208L1553.061683741098 608.0982131517208Q1561.033219546574 608.0982131517208 1566.9780937065902 605.0717317611673Q1572.922967866606 602.0722725258865 1578.7597534055308 596.6137971607809L1578.7597534055308 596.6137971607809Q1578.543576163348 594.4790468942297 1578.543576163348 591.9389642985866Q1578.543576163348 589.4259038582163 1578.543576163348 586.6966661756635L1578.543576163348 586.6966661756635Q1578.543576163348 585.7238685858426 1578.6516647844396 580.4545483076467Q1578.7597534055308 575.2122501847236 1578.7597534055308 568.4026670559781ZM1789.640653154459 523.2756677504027L1782.641914938804 523.2756677504027Q1780.6963197591622 504.98166863071737 1769.9144798053153 494.8483604034175Q1759.1056176961952 484.7420743313904 1742.189748495423 484.7420743313904L1742.189748495423 484.7420743313904Q1731.867285181213 484.7420743313904 1722.8148631648255 489.119663485584Q1713.7624411484376 493.4972526397775 1706.952858019692 501.657943532163Q1700.1432748909465 509.8456565798213 1696.252084531663 521.3300725707611Q1692.36089417238 532.7874664064282 1692.36089417238 547.1902751668304L1692.36089417238 547.1902751668304Q1692.36089417238 565.4842742865158 1699.3866545433084 579.4817507178259Q1706.385392758963 593.506249304409 1718.2481189237224 601.2886300229752Q1730.1108450884813 609.0710107415416 1744.5136538488837 609.0710107415416L1744.5136538488837 609.0710107415416Q1757.1600225165535 609.0710107415416 1769.4280810104046 603.3152916684353Q1781.669117348983 597.5865947506018 1789.451498067549 586.6966661756635L1789.451498067549 586.6966661756635L1794.5046411035628 590.7770116218562Q1786.1547951242674 602.2614276127961 1776.4268192260597 608.47652332554Q1766.698843327852 614.7186411935568 1757.0519338954623 616.9344579259262Q1747.4320466183458 619.1772968135685 1739.4605108128699 619.1772968135685L1739.4605108128699 619.1772968135685Q1724.8685469655584 619.1772968135685 1712.7085770927984 613.9349986906454Q1700.5486072200383 608.6656784124496 1691.6853402905604 599.2349462222426Q1682.8490955163547 589.8042140320354 1678.0661740330693 577.2659339854565Q1673.3102747050566 564.7006317836044 1673.3102747050566 550.1086679362927L1673.3102747050566 550.1086679362927Q1673.3102747050566 536.3003465918921 1677.4987087723403 523.2756677504027Q1681.6601206843516 510.22396675364047 1690.0369888189193 499.7123483525214Q1698.413856953487 489.2277521066752 1711.1412920869757 482.98563423865846Q1723.8957493757375 476.77053852591456 1740.8116185765098 476.77053852591456L1740.8116185765098 476.77053852591456Q1751.7015471514483 476.77053852591456 1761.429523049656 479.68893129537696Q1771.157498947864 482.6073240648393 1780.1288544984336 488.6332646906736L1780.1288544984336 488.6332646906736L1779.1560569086128 478.1216462895545L1789.640653154459 478.1216462895545L1789.640653154459 523.2756677504027ZM1871.355650699405 616.0697489571967L1871.355650699405 610.232963418272Q1877.408613480512 610.232963418272 1879.7325188339728 607.2064820277185Q1882.0564241874335 604.2070227924376 1882.4617565165254 598.8566360484233Q1882.8400666903449 593.506249304409 1882.8400666903449 586.507511088754L1882.8400666903449 586.507511088754L1882.8400666903449 559.2691785737718Q1882.8400666903449 542.515442304636 1877.4896799463304 534.165596325341Q1872.1392932023164 525.7887281907731 1860.6548772113765 525.9778832776826L1860.6548772113765 525.9778832776826Q1853.4669839088115 526.194060519865 1846.5493121589748 529.4907634631465Q1839.6586625644109 532.7874664064282 1835.3621398760356 538.0567866846241L1835.3621398760356 538.0567866846241L1835.3621398760356 595.4518444840505Q1835.3621398760356 599.3430348433337 1835.1729847891265 602.3424940786144Q1834.9838297022166 605.3689754691679 1834.3893422862152 608.6656784124496L1834.3893422862152 608.6656784124496Q1837.5239122978596 608.47652332554 1840.5233715331406 608.3954568597217Q1843.5498529236943 608.2873682386303 1846.657400780066 608.0982131517208L1846.657400780066 608.0982131517208L1846.657400780066 616.0697489571967L1806.9618546843235 616.0697489571967L1806.9618546843235 610.232963418272Q1812.9877953101577 610.232963418272 1815.3387228188913 607.2064820277185Q1817.662628172352 604.2070227924376 1818.1490269672627 598.8566360484233Q1818.6354257621729 593.506249304409 1818.6354257621729 586.507511088754L1818.6354257621729 586.507511088754L1818.6354257621729 494.4700502295983Q1818.6354257621729 491.36250237322633 1818.743514383264 488.52517606958236Q1818.8245808490824 485.7148719212112 1819.2299131781742 481.8236815619281L1819.2299131781742 481.8236815619281Q1815.7170329927103 482.0128366488377 1812.3122414283375 482.2019917357473Q1808.9074498639652 482.41816897792967 1805.421591833774 482.6073240648393L1805.421591833774 482.6073240648393L1805.421591833774 474.41961101718096Q1813.9605928999786 474.41961101718096 1818.743514383264 473.6629906695426Q1823.4994137112767 472.8793481666314 1825.9314076858286 471.71739548990104Q1828.3634016603805 470.52842065789787 1829.7415315792937 469.17731289425785L1829.7415315792937 469.17731289425785L1835.3621398760356 469.17731289425785L1835.3621398760356 528.5179658733258Q1839.6586625644109 524.8159306009522 1845.0090493084253 522.005626452581Q1850.3594360524394 519.1683001489372 1856.0881329702734 517.438882211478Q1861.8438520433792 515.6824421187459 1867.275305253212 515.6824421187459L1867.275305253212 515.6824421187459Q1884.2181966092576 515.6824421187459 1891.7033336198228 526.2751269856835Q1899.1884706303886 536.8948340078937 1899.377625717298 559.2691785737718L1899.377625717298 559.2691785737718L1899.5667808042076 595.4518444840505Q1899.5667808042076 599.3430348433337 1899.4857143383892 602.3424940786144Q1899.377625717298 605.3689754691679 1898.8101604565695 608.6656784124496L1898.8101604565695 608.6656784124496Q1901.9177083129412 608.47652332554 1904.917167548222 608.3954568597217Q1907.9436489387754 608.2873682386303 1911.0511967951475 608.0982131517208L1911.0511967951475 608.0982131517208L1911.0511967951475 616.0697489571967L1871.355650699405 616.0697489571967ZM2012.4113012234188 616.0697489571967L1984.605503447708 616.0697489571967Q1984.0110160317067 612.7730460139151 1983.8218609447968 610.232963418272Q1983.6327058578872 607.6928808226287 1983.2273735287954 604.9906652953489L1983.2273735287954 604.9906652953489Q1976.6339676422322 611.5840711819119 1968.9326533894841 615.3941950753767Q1961.2583612920093 619.1772968135685 1952.692338070532 619.1772968135685L1952.692338070532 619.1772968135685Q1937.9112191363101 619.1772968135685 1930.6963036784728 612.4758023059144Q1923.5084103759082 605.7472856429872 1923.5084103759082 596.0193097447793L1923.5084103759082 596.0193097447793Q1923.5084103759082 587.0749763494828 1929.0479522068322 580.5626369287379Q1934.5874940377562 574.0502975079933 1943.4507609672341 569.8618634407094Q1952.3140278967126 565.6734293734253 1962.7175576767404 563.6467677279653Q1973.1210874567682 561.5930839272326 1982.849063354976 561.7822390141421L1982.849063354976 561.7822390141421L1982.849063354976 549.7303577624735Q1982.849063354976 542.920774633728 1981.687110678246 536.8948340078937Q1980.5251580015151 530.8418712267866 1976.6339676422322 526.9506808675035Q1972.7427772829492 523.0594905082203 1964.1767540614715 522.8703354213108L1964.1767540614715 522.8703354213108Q1958.5291236094563 522.6811803344011 1952.5842494494404 525.0050856878619Q1946.6663974446974 527.3560131965954 1943.9371597621448 533.0036436486106L1943.9371597621448 533.0036436486106Q1945.504444767967 534.5439064991601 1945.9908435628777 536.5975902998929Q1946.4772423577879 538.6242519453529 1946.4772423577879 540.3806920380848L1946.4772423577879 540.3806920380848Q1946.4772423577879 542.7316195468184 1944.5316471781462 545.7310787820992Q1942.5860519985044 548.7575601726528 1937.7220640494006 548.5684050857432L1937.7220640494006 548.5684050857432Q1933.6146964479353 548.5684050857432 1931.479946181384 545.7310787820992Q1929.3451959148329 542.920774633728 1929.3451959148329 539.0295842744449L1929.3451959148329 539.0295842744449Q1929.3451959148329 532.4091562326089 1934.3172724850283 527.1668581096858Q1939.2623268999505 521.8975378314899 1948.0175052083373 518.789989975118Q1956.7726835167246 515.6824421187459 1967.878789333845 515.6824421187459L1967.878789333845 515.6824421187459Q1984.2001711186158 515.6824421187459 1991.9825518371822 524.3295318060418Q1999.7649325557486 533.0036436486106 1999.575777468839 551.6759529421151L1999.575777468839 551.6759529421151Q1999.575777468839 558.8638462446797 1999.575777468839 566.1598281683357Q1999.575777468839 573.4558100919917 1999.4947110030207 580.7517920156477Q1999.3866223819296 588.0477739393034 1999.3866223819296 595.4518444840505L1999.3866223819296 595.4518444840505Q1999.3866223819296 598.5593923404224 1999.19746729502 601.6669401967945Q1999.0083122081105 604.7744880531664 1998.6029798790182 608.6656784124496L1998.6029798790182 608.6656784124496Q2002.1158600644821 608.47652332554 2005.520651628855 608.2873682386303Q2008.9254431932277 608.0982131517208 2012.4113012234188 607.9090580648112L2012.4113012234188 607.9090580648112L2012.4113012234188 616.0697489571967ZM1982.849063354976 568.4026670559781L1982.849063354976 568.4026670559781Q1976.2286353131403 568.5918221428878 1968.9326533894841 570.0510185276189Q1961.6366714658284 571.5102149123502 1955.502642218903 574.4286076818125Q1949.39563512725 577.3470004512749 1945.5855112337854 582.1299219345603Q1941.8024094955936 586.885821262573 1941.991564582503 593.6954043913186L1941.991564582503 593.6954043913186Q1942.3698747563221 600.8832976938834 1946.7474639105158 604.5042665004385Q1951.1250530647094 608.0982131517208 1957.1780158458164 608.0982131517208L1957.1780158458164 608.0982131517208Q1965.1495516512923 608.0982131517208 1971.0674036560354 605.0717317611673Q1977.0122778160512 602.0722725258865 1982.849063354976 596.6137971607809L1982.849063354976 596.6137971607809Q1982.6599082680664 594.4790468942297 1982.6599082680664 591.9389642985866Q1982.6599082680664 589.4259038582163 1982.6599082680664 586.6966661756635L1982.6599082680664 586.6966661756635Q1982.6599082680664 585.7238685858426 1982.7409747338847 580.4545483076467Q1982.849063354976 575.2122501847236 1982.849063354976 568.4026670559781ZM2065.536858489743 616.0697489571967L2025.8413123940004 616.0697489571967L2025.8413123940004 610.232963418272Q2031.8672530198346 610.232963418272 2034.2181805285682 607.2064820277185Q2036.542085882029 604.2070227924376 2036.9474182111207 598.8566360484233Q2037.3257283849402 593.506249304409 2037.3257283849402 586.507511088754L2037.3257283849402 586.507511088754L2037.3257283849402 542.1371321308168Q2037.3257283849402 539.0295842744449 2037.4338170060314 535.9220364180729Q2037.5148834718498 532.7874664064282 2038.1093708878511 529.4907634631465L2038.1093708878511 529.4907634631465Q2034.5964907023877 529.6799185500562 2031.1916991380144 529.8690736369658Q2027.7869075736417 530.0852508791481 2024.301049543451 530.2744059660579L2024.301049543451 530.2744059660579L2024.301049543451 522.0866929183995Q2032.8400506096555 522.0866929183995 2037.2176397638486 521.3300725707611Q2041.5952289180423 520.54643006785 2043.7570013398663 519.3844773911196Q2045.8917516064175 518.1955025591164 2047.2428593700574 516.8443947954763L2047.2428593700574 516.8443947954763L2052.8904898220726 516.8443947954763Q2053.2687999958916 518.789989975118 2053.3768886169833 521.3300725707611Q2053.484977238074 523.8431330111315 2053.674132324984 527.1668581096858L2053.674132324984 527.1668581096858Q2059.5109178639086 522.0866929183995 2067.1041434955655 518.8980785962092Q2074.670346971949 515.6824421187459 2082.263572603606 515.6824421187459L2082.263572603606 515.6824421187459Q2091.9915485018137 515.6824421187459 2098.6119765436497 519.1683001489372Q2105.2324045854857 522.6811803344011 2108.934439857859 528.7071209602354L2108.934439857859 528.7071209602354Q2115.5278457444224 523.2756677504027 2124.201957586991 519.465543856938Q2132.849047274287 515.6824421187459 2141.2259154088547 515.6824421187459L2141.2259154088547 515.6824421187459Q2158.1417846096274 515.6824421187459 2166.113320415103 525.8968168118643Q2174.111878375852 536.1111915049826 2173.7065460467597 559.2691785737718L2173.7065460467597 559.2691785737718L2173.51739095985 595.4518444840505Q2173.51739095985 599.3430348433337 2173.409302338759 602.3424940786144Q2173.3282358729407 605.3689754691679 2172.733748456939 608.6656784124496L2172.733748456939 608.6656784124496Q2175.841296313311 608.47652332554 2178.8677777038647 608.3954568597217Q2181.894259094418 608.2873682386303 2185.00180695079 608.0982131517208L2185.00180695079 608.0982131517208L2185.00180695079 616.0697489571967L2145.306260855047 616.0697489571967L2145.306260855047 610.232963418272Q2151.332201480882 610.232963418272 2153.6831289896154 607.2064820277185Q2156.007034343076 604.2070227924376 2156.385344516895 598.8566360484233Q2156.7906768459875 593.506249304409 2156.7906768459875 586.507511088754L2156.7906768459875 586.507511088754L2156.7906768459875 559.2691785737718Q2156.7906768459875 542.515442304636 2151.440290101973 534.165596325341Q2146.0899033579585 525.7887281907731 2134.6054873670187 525.9778832776826L2134.6054873670187 525.9778832776826Q2128.5795467411845 525.9778832776826 2122.55360611535 528.7071209602354Q2116.500643334243 531.4363586427883 2112.041987714231 535.516704088981L2112.041987714231 535.516704088981Q2113.014785304052 538.6242519453529 2113.5011840989623 542.245220751908Q2113.987582893873 545.8391674031905 2113.987582893873 549.7303577624735L2113.987582893873 549.7303577624735Q2113.798427806963 560.998596511231 2113.798427806963 572.4830125021708Q2113.798427806963 583.9674284931107 2113.5822505647807 595.4518444840505L2113.5822505647807 595.4518444840505Q2113.5822505647807 599.3430348433337 2113.5011840989623 602.3424940786144Q2113.393095477871 605.3689754691679 2112.825630217142 608.6656784124496L2112.825630217142 608.6656784124496Q2115.9331780735142 608.47652332554 2118.932637308795 608.3954568597217Q2121.9591186993484 608.2873682386303 2125.0666665557205 608.0982131517208L2125.0666665557205 608.0982131517208L2125.0666665557205 616.0697489571967L2085.3711204599776 616.0697489571967L2085.3711204599776 610.232963418272Q2091.424083241085 610.232963418272 2093.6398999734547 607.2064820277185Q2095.882738861097 604.2070227924376 2096.3691376560073 598.8566360484233Q2096.8555364509175 593.506249304409 2096.8555364509175 586.507511088754L2096.8555364509175 586.507511088754L2097.044691537827 559.2691785737718Q2097.26086878001 542.515442304636 2092.180703588723 533.9764412384313Q2087.12756055271 525.4104180169538 2075.64314456177 525.5995731038635L2075.64314456177 525.5995731038635Q2069.617203935936 525.5995731038635 2063.780418397011 528.220722165325Q2057.9436328580864 530.8418712267866 2053.8632874118935 534.9492388282522L2053.8632874118935 534.9492388282522Q2053.8632874118935 537.273144181713 2053.9713760329846 539.8942932431745Q2054.052442498803 542.515442304636 2054.052442498803 545.4338350740984L2054.052442498803 545.4338350740984L2054.052442498803 595.4518444840505Q2054.052442498803 599.3430348433337 2053.9713760329846 602.3424940786144Q2053.8632874118935 605.3689754691679 2053.2687999958916 608.6656784124496L2053.2687999958916 608.6656784124496Q2056.403370007537 608.47652332554 2059.4028292428175 608.3954568597217Q2062.4293106333707 608.2873682386303 2065.536858489743 608.0982131517208L2065.536858489743 608.0982131517208L2065.536858489743 616.0697489571967ZM2205.619711423936 616.0697489571967L2205.9980215977553 494.4700502295983Q2205.9980215977553 491.36250237322633 2206.106110218847 488.52517606958236Q2206.214198839938 485.7148719212112 2206.592509013757 481.8236815619281L2206.592509013757 481.8236815619281Q2203.079628828293 482.0128366488377 2199.67483726392 482.2019917357473Q2196.270045699547 482.41816897792967 2192.7841876693565 482.6073240648393L2192.7841876693565 482.6073240648393L2192.7841876693565 474.41961101718096Q2201.3502108908338 474.41961101718096 2206.106110218847 473.6629906695426Q2210.8620095468596 472.8793481666314 2213.2940035214115 471.71739548990104Q2215.7259974959634 470.52842065789787 2217.104127414876 469.17731289425785L2217.104127414876 469.17731289425785L2222.7517578668912 469.17731289425785L2222.7517578668912 527.1668581096858Q2228.183211076724 521.7083827445804 2235.6683480872894 518.6819013540268Q2243.1805072531274 515.6824421187459 2252.1248406484247 515.6824421187459L2252.1248406484247 515.6824421187459Q2264.582054229185 515.6824421187459 2274.580251680121 521.7083827445804Q2284.6054712863292 527.7343233704146 2290.442256825254 538.8404291875353Q2296.2790423641786 549.9195128493832 2296.2790423641786 565.1059641126965L2296.2790423641786 565.1059641126965Q2296.2790423641786 581.6435231396499 2289.091149061614 593.8034930124097Q2281.8762336037767 605.9634628851695 2270.4188397681096 612.5568687717328Q2258.9344237771697 619.1772968135685 2245.693567693498 619.1772968135685L2245.693567693498 619.1772968135685Q2239.073139651662 619.1772968135685 2231.2096924672774 616.7453028390166Q2223.31922312762 614.3133088644647 2217.104127414876 607.3145706488096L2217.104127414876 607.3145706488096L2212.4292945526818 616.0697489571967L2205.619711423936 616.0697489571967ZM2222.7517578668912 536.3003465918921L2222.7517578668912 585.5347134989331Q2222.7517578668912 595.8301546578698 2226.048460810173 601.3696964887936Q2229.345163753454 606.9362604749904 2234.61448403165 609.0710107415416Q2239.856782154573 611.2057610080926 2245.693567693498 611.2057610080926L2245.693567693498 611.2057610080926Q2255.0432334178863 611.2057610080926 2261.8528165466323 605.9634628851695Q2268.662399675378 600.6941426069736 2272.4455014135697 591.4525655036762Q2276.2556253070343 582.2109884003787 2276.2556253070343 569.9699520618005L2276.2556253070343 569.9699520618005Q2276.2556253070343 556.7290959781286 2272.93190020848 546.7038763719199Q2269.6351972651983 536.6786567657114 2263.0147692233622 530.9499598478778Q2256.394341181526 525.2212629300443 2246.2880551094995 525.2212629300443L2246.2880551094995 525.2212629300443Q2239.856782154573 525.2212629300443 2233.533597820738 528.220722165325Q2227.2104134869032 531.2472035558785 2222.7517578668912 536.3003465918921L2222.7517578668912 536.3003465918921ZM2360.1053731185316 619.1772968135685L2360.1053731185316 619.1772968135685Q2346.67536194795 619.1772968135685 2335.8664998388304 612.8541124797334Q2325.0846598849835 606.5309281458983 2318.8425420169665 594.9654456891401Q2312.6274463042228 583.3729410771091 2312.6274463042228 567.619024553067L2312.6274463042228 567.619024553067Q2312.6274463042228 553.9998582955759 2318.761475551148 542.1371321308168Q2324.8955047980735 530.2744059660579 2335.9745884599215 522.9784240424019Q2347.0536721217695 515.6824421187459 2361.645635969081 515.6824421187459L2361.645635969081 515.6824421187459Q2369.8333490167392 515.6824421187459 2376.9401758534855 518.3035911802076Q2384.019980534959 520.9247402416692 2389.4784559000645 526.2751269856835Q2394.93693126517 531.6255137296978 2398.0444791215423 539.7051381562649Q2401.152026977914 547.784762582832 2401.152026977914 558.6746911577702L2401.152026977914 558.6746911577702L2332.67788551664 559.8366438345006Q2332.67788551664 574.6177627687221 2335.8664998388304 585.804935051661Q2339.0821363162936 596.9921073346002 2346.297051774131 603.1261365815255Q2353.4849450766956 609.2601658284511 2364.780205980726 609.2601658284511L2364.780205980726 609.2601658284511Q2370.80614660656 609.2601658284511 2377.1293309403954 607.1254155618999Q2383.452515274231 604.9906652953489 2388.883968484063 601.2886300229752Q2394.342443849169 597.5865947506018 2397.6391467924504 593.100916975317L2397.6391467924504 593.100916975317L2402.3139796546443 596.9921073346002Q2397.0716815317214 605.1798203822584 2389.667610986974 610.0438083313625Q2382.2905625975 614.9077962804663 2374.5081818789336 617.0425465470175Q2366.725801160367 619.1772968135685 2360.1053731185316 619.1772968135685ZM2333.245350777369 551.6759529421151L2333.245350777369 551.6759529421151L2382.858027858229 551.6759529421151Q2382.858027858229 544.67721472646 2380.831366212769 538.1378531504424Q2378.777682412036 531.6255137296978 2374.1028495498417 527.4370796624139Q2369.4280166876474 523.2756677504027 2361.861813211264 523.2756677504027L2361.861813211264 523.2756677504027Q2350.566552307233 523.2756677504027 2343.0814152966677 529.977162258057Q2335.5962782861025 536.6786567657114 2333.245350777369 551.6759529421151ZM2418.4732285077785 616.0697489571967L2418.4732285077785 610.232963418272Q2424.499169133613 610.232963418272 2426.823074487074 607.2064820277185Q2429.1740019958074 604.2070227924376 2429.5523121696265 598.8566360484233Q2429.9576444987183 593.506249304409 2429.9576444987183 586.507511088754L2429.9576444987183 586.507511088754L2429.9576444987183 542.1371321308168Q2429.9576444987183 539.0295842744449 2430.0387109645367 535.9220364180729Q2430.1467995856283 532.7874664064282 2430.714264846357 529.4907634631465L2430.714264846357 529.4907634631465Q2427.2284068161657 529.6799185500562 2423.823615251793 529.7880071711475Q2420.41882368742 529.8690736369658 2416.9059435019562 530.0852508791481L2416.9059435019562 530.0852508791481L2416.9059435019562 522.0866929183995L2422.9318841277905 522.0866929183995Q2431.3087522623587 522.0866929183995 2434.5243887398215 520.4383414467587Q2437.7400252172847 518.789989975118 2439.8747754838364 516.8443947954763L2439.8747754838364 516.8443947954763L2445.522405935851 516.8443947954763Q2445.90071610967 519.9519426518484 2446.0898711965797 524.5186868929515Q2446.2790262834897 529.1124532893274 2446.495203525672 536.1111915049826L2446.495203525672 536.1111915049826Q2449.4135962951345 531.2472035558785 2454.466739331148 526.5723706936842Q2459.5198823671612 521.8975378314899 2465.843066700996 518.789989975118Q2472.1662510348315 515.6824421187459 2479.1649892504865 515.6824421187459L2479.1649892504865 515.6824421187459Q2484.623464615592 515.6824421187459 2488.703810061785 518.6008348882084Q2492.7841555079776 521.5192276576707 2492.7841555079776 527.9234784573242L2492.7841555079776 527.9234784573242Q2492.7841555079776 529.4907634631465 2491.811357918157 531.7336023507889Q2490.838560328336 533.9764412384313 2488.703810061785 535.6247927100721Q2486.569059795234 537.273144181713 2483.05617960977 537.273144181713L2483.05617960977 537.273144181713Q2478.7866790766675 537.0839890948033 2476.246596481024 533.8683526173402Q2473.7335360406537 530.6527161398769 2474.3010013013827 526.3832156067747L2474.3010013013827 526.3832156067747Q2469.437013352279 526.194060519865 2464.275781695174 528.896276047145Q2459.141572193342 531.6255137296978 2454.6558944180574 536.4084352129832Q2450.1702166427726 541.164334540996 2446.6843586125815 547.5956074959224L2446.6843586125815 547.5956074959224L2446.873513699491 595.4518444840505Q2446.873513699491 599.3430348433337 2446.7654250784 602.3424940786144Q2446.6843586125815 605.3689754691679 2446.0898711965797 608.6656784124496L2446.0898711965797 608.6656784124496Q2449.197419052952 608.47652332554 2452.2239004435055 608.3954568597217Q2455.2503818340588 608.2873682386303 2458.357929690431 608.0982131517208L2458.357929690431 608.0982131517208L2458.357929690431 616.0697489571967L2418.4732285077785 616.0697489571967Z " fill="#d4af37" transform="matrix(0.35182682373580415,0,0,0.35182682373580415,-2.0283532770201083,108.5438141751128)"/></g></svg>