<?xml version="1.0" encoding="iso-8859-1"?>
<!-- Uploaded to: SVG Repo, www.svgrepo.com, Generator: SVG Repo Mixer Tools -->
<svg height="800px" width="800px" version="1.1" id="Layer_1" xmlns="http://www.w3.org/2000/svg" xmlns:xlink="http://www.w3.org/1999/xlink" 
	 viewBox="0 0 512 512" xml:space="preserve">
<circle style="fill:#CC7400;" cx="422.957" cy="83.478" r="83.478"/>
<circle style="fill:#FFA733;" cx="89.043" cy="83.478" r="83.478"/>
<path style="fill:#FFB655;" d="M326.609,435.663c-4.543-7.577-2.381-17.31,4.772-22.288c0.174-0.136,0.392-0.309,0.587-0.467l0,0
	c18.381-14.652,27.935-29.021,28.38-42.712c0.794-24.402-26.141-48.913-47.793-68.609c-5.631-5.13-10.913-9.941-15.359-14.386
	c-15.587-15.527-24.533-39.071-24.533-64.592s8.946-49.065,24.489-64.543c15.75-15.815,36.707-24.527,59.021-24.527
	s43.272,8.712,59,24.506c2.967,2.967,5.5,5.684,7.859,8.233c10.642,11.462,16.5,17.778,55.228,30.826
	c6.327,2.13,10.772,7.82,11.315,14.467c0.14,1.777,0.163,3.695,0.163,5.473c0,92.837-70.587,183.158-140.315,224.402
	c-2.664,1.576-5.597,2.326-8.489,2.326C335.261,443.772,329.728,440.881,326.609,435.663z"/>
<path style="fill:#FFE477;" d="M171.065,443.772c-2.892,0-5.826-0.75-8.489-2.326C92.848,400.201,22.261,309.88,22.261,217.043
	c0-1.778,0.022-3.695,0.163-5.473c0.543-6.647,4.989-12.337,11.315-14.467c38.728-13.049,44.587-19.364,55.228-30.826
	c2.359-2.549,4.892-5.266,7.859-8.233c15.728-15.793,36.685-24.506,59-24.506s43.272,8.712,59.021,24.527
	c15.544,15.478,24.489,39.022,24.489,64.543s-8.946,49.065-24.533,64.592c-4.445,4.445-9.728,9.255-15.359,14.386
	c-21.652,19.695-48.587,44.207-47.793,68.609c0.445,13.69,10,28.06,28.38,42.712l0,0c0.196,0.158,0.413,0.332,0.587,0.467
	c7.152,4.979,9.315,14.712,4.772,22.288C182.272,440.881,176.739,443.772,171.065,443.772z"/>
<path style="fill:#FF9827;" d="M256,429.629c-0.072-0.024-0.145-0.05-0.217-0.075c-7.554,2.598-14.413,5.152-20.707,7.494
	c-33.29,12.373-49.952,17.872-72.608,4.336c-1.163-0.707-2.153-1.461-3.065-2.223c-26.565-21.173-40.337-43.962-41.119-67.874
	c-1.574-48.057,49.26-84.079,72.934-107.723c27.04-26.945,18.079-96.636-35.391-96.636c-42.092,0-29.702,34.275-111.435,61.815
	c-10.9,3.675-22.278-4.575-22.022-16.211C25.043,99.316,134.217,0,256,0s230.957,99.316,233.63,212.532
	c0.256,11.637-11.122,19.888-22.022,16.211c-81.733-27.54-69.343-61.815-111.435-61.815c-53.471,0-62.432,69.691-35.391,96.636
	c23.674,23.643,74.509,59.666,72.934,107.723c-0.782,23.913-14.554,46.701-41.119,67.874c-0.913,0.761-1.902,1.516-3.065,2.223
	c-22.657,13.535-39.319,8.035-72.608-4.336c-6.293-2.342-13.152-4.896-20.707-7.494C256.145,429.579,256.072,429.605,256,429.629z"
	/>
<path style="fill:#957856;" d="M214.817,287.165c-4.452,4.564-9.685,9.35-15.361,14.47c-21.704,19.701-48.639,44.188-47.748,68.563
	c0.444,13.69,10.017,28.049,28.382,42.741l-20.813,26.045c-26.38-21.036-40.181-43.854-40.96-67.673
	c-1.336-39.847,33.391-71.346,58.657-94.386c5.231-4.786,10.129-9.238,14.246-13.357c19.59-19.478,19.59-62.442,0-81.92
	c-9.459-9.461-22.037-14.692-35.394-14.692s-25.935,5.231-35.394,14.692c-2.671,2.671-4.899,5.12-7.125,7.346
	c-16.139,17.475-27.492,27.381-90.043,46.525c-0.67-6.233-1.004-12.355-1.004-18.477c0-5.454,0.223-10.908,0.78-16.362
	c48.194-15.471,55.095-22.817,65.891-34.393c2.337-2.56,4.896-5.343,7.903-8.348c15.805-15.694,36.73-24.376,58.991-24.376
	s43.297,8.682,58.991,24.487C247.43,190.664,247.43,254.664,214.817,287.165z"/>
<path style="fill:#E58613;" d="M256.217,429.555c7.554,2.598,14.413,5.152,20.707,7.494c33.289,12.373,49.951,17.872,72.608,4.336
	c1.163-0.707,2.153-1.461,3.065-2.223c26.565-21.173,40.337-43.962,41.119-67.874c1.574-48.057-49.261-84.079-72.934-107.723
	c-27.04-26.945-18.079-96.636,35.391-96.636c42.092,0,29.703,34.275,111.435,61.815c10.899,3.675,22.278-4.576,22.022-16.211
	C486.957,99.316,377.783,0,256,0v429.629C256.073,429.604,256.144,429.579,256.217,429.555z"/>
<path style="fill:#FFE477;" d="M322.783,415.511l-133.565-0.109c-9.217,0-16.696,7.473-16.696,16.696v29.815
	c0,27.619,22.468,50.087,50.087,50.087h66.783c27.619,0,50.087-22.468,50.087-50.087v-29.706
	C339.478,422.983,332,415.511,322.783,415.511z"/>
<path style="fill:#FFB655;" d="M322.783,415.511L256,415.457V512h33.391c27.619,0,50.087-22.468,50.087-50.087v-29.706
	C339.478,422.983,332,415.511,322.783,415.511z"/>
<path style="fill:#816952;" d="M489.739,217.043c0,6.122-0.334,12.355-1.003,18.588c-62.886-19.256-74.35-29.162-90.489-46.637
	c-2.114-2.226-4.452-4.675-7.123-7.346c-19.478-19.59-51.311-19.59-70.79,0c-19.59,19.478-19.59,62.442,0,81.92
	c4.118,4.118,9.017,8.57,14.247,13.357c25.377,23.04,59.992,54.539,58.657,94.386c-0.78,23.819-14.47,46.637-40.961,67.673
	l-20.813-26.045c18.475-14.692,28.049-29.05,28.495-42.741c0.777-24.376-26.158-48.863-47.861-68.563
	c-5.565-5.12-10.908-9.906-15.361-14.47c-32.611-32.501-32.611-96.501,0-129.113c32.503-32.613,85.484-32.613,117.984,0
	c3.005,2.893,5.565,5.675,8.014,8.237c10.908,11.798,17.587,19.144,66.226,34.504C489.516,206.136,489.739,211.59,489.739,217.043z"
	/>
<circle style="fill:#696B6F;" cx="155.826" cy="217.032" r="16.696"/>
<circle style="fill:#957856;" cx="189.229" cy="100.166" r="16.696"/>
<circle style="fill:#816952;" cx="322.794" cy="100.185" r="16.696"/>
<path style="fill:#616267;" d="M339.479,217.053c0.001-9.22,7.477-16.695,16.698-16.693c9.22,0.001,16.695,7.477,16.693,16.698
	s-7.477,16.695-16.698,16.693C346.952,233.75,339.478,226.274,339.479,217.053"/>
<path style="fill:#957856;" d="M354.956,415.565c-5.728-7.196-16.228-8.402-23.456-2.658c-7.098,5.646-16.489,2.858-43.75-7.283
	c-4.671-1.74-9.867-3.601-15.187-5.5v-14.769l28.622-28.497c6.521-6.521,6.521-17.092,0-23.614s-17.087-6.516-23.609-0.006
	l-21.587,21.587L234.4,333.234c-6.521-6.521-17.087-6.516-23.609-0.006c-6.521,6.521-6.521,17.092,0,23.614l28.489,28.503v14.634
	c-5.461,1.947-10.685,3.858-15.467,5.64c-27.24,10.146-36.663,12.946-43.739,7.288c-7.207-5.728-17.706-4.56-23.456,2.658
	c-5.75,7.211-4.566,17.717,2.652,23.462c22.457,17.88,46.174,9.07,76.196-2.119c6.185-2.298,12.914-4.804,20.293-7.358
	c7.402,2.56,14.152,5.071,20.348,7.375c17.642,6.565,33.097,12.315,47.413,12.315c10.043,0,19.522-2.832,28.782-10.212
	C359.522,433.282,360.706,422.777,354.956,415.565z"/>
<path style="fill:#816952;" d="M331.5,412.908c-7.098,5.646-16.489,2.858-43.75-7.283c-4.671-1.74-9.867-3.601-15.187-5.5v-14.769
	l28.622-28.497c6.521-6.521,6.521-17.092,0-23.614c-6.521-6.522-17.087-6.516-23.609-0.006L256,354.815v74.819
	c7.305,2.531,13.983,5.012,20.108,7.29c17.642,6.565,33.097,12.315,47.413,12.315c10.043,0,19.522-2.832,28.782-10.212
	c7.217-5.744,8.402-16.25,2.652-23.462C349.229,408.37,338.728,407.164,331.5,412.908z"/>
</svg>